<svg width="600" height="204" viewBox="0 0 600 204" fill="none" xmlns="http://www.w3.org/2000/svg">
<rect width="962.398" height="80" transform="translate(-45.2747 117.414) rotate(-6.73598)" fill="#FFAA00"/>
<circle cx="-1.65438" cy="152.54" r="4" transform="rotate(-6.73598 -1.65438 152.54)" fill="black"/>
<path d="M51.415 155.113L51.6295 155.088C51.8838 155.058 52.0552 154.941 52.1439 154.737C52.2308 154.517 52.247 154.177 52.1925 153.716L50.74 141.418C50.663 140.766 50.5558 140.336 50.4183 140.126C50.2948 139.899 50.098 139.802 49.8279 139.834L49.6134 139.859L49.5289 139.144L54.0575 138.609L54.1419 139.324L53.9512 139.347C53.6652 139.38 53.4807 139.523 53.3976 139.775C53.3285 140.008 53.3325 140.451 53.4094 141.102L55.0112 154.664L55.9646 154.551C57.7124 154.345 58.9746 154.051 59.7512 153.669C60.5437 153.286 61.0141 152.835 61.1625 152.318C61.3249 151.784 61.3526 151.063 61.2457 150.158L61.9845 150.07L62.5109 154.527L51.4995 155.828L51.415 155.113ZM69.8841 154.043C68.6924 154.184 67.5791 154.034 66.5441 153.592C65.5092 153.15 64.6564 152.478 63.9858 151.574C63.3152 150.67 62.9095 149.623 62.7687 148.431C62.628 147.239 62.7794 146.134 63.2229 145.115C63.6645 144.08 64.3381 143.235 65.2435 142.58C66.1471 141.91 67.1948 141.504 68.3865 141.363C69.467 141.236 70.4775 141.334 71.418 141.658C72.3584 141.982 73.1181 142.48 73.697 143.153C74.29 143.808 74.6362 144.556 74.7356 145.399C74.8295 146.193 74.6335 146.853 74.1476 147.377C73.6758 147.884 72.9632 148.194 72.0099 148.306C70.8499 148.443 68.7174 148.462 65.6121 148.361C65.9128 149.679 66.4853 150.707 67.3297 151.445C68.19 152.181 69.2637 152.473 70.5507 152.321C71.4246 152.218 72.2097 151.908 72.9058 151.391C73.616 150.856 74.2012 150.15 74.6617 149.274L75.217 149.474C74.7297 150.805 74.0249 151.863 73.1027 152.648C72.1805 153.434 71.1076 153.899 69.8841 154.043ZM65.5292 147.863L69.6525 147.376C70.6536 147.258 71.3307 147.057 71.6839 146.774C72.053 146.489 72.199 146.02 72.1221 145.369C72.0452 144.717 71.8308 144.131 71.4791 143.608C71.1415 143.068 70.7076 142.668 70.1774 142.409C69.6613 142.131 69.1173 142.026 68.5453 142.094C67.8143 142.18 67.198 142.487 66.6963 143.013C66.2086 143.522 65.8598 144.183 65.6499 144.997C65.438 145.796 65.3884 146.672 65.501 147.625L65.5292 147.863ZM81.6707 140.93C80.0042 141.143 78.7915 141.448 78.0327 141.843C77.2879 142.221 76.8413 142.669 76.6929 143.186C76.5445 143.703 76.5229 144.406 76.6279 145.296L75.8891 145.383L75.3627 140.926L84.9679 139.792L79.8767 151.727C81.4956 151.52 82.6685 151.22 83.3956 150.828C84.1226 150.436 84.5533 149.991 84.6877 149.491C84.8361 148.974 84.8577 148.271 84.7526 147.381L85.4915 147.294L86.0179 151.751L76.5795 152.866L81.6707 140.93ZM91.5784 151.481C90.8157 151.571 90.1146 151.501 89.4751 151.27C88.8516 151.038 88.334 150.68 87.9225 150.197C87.525 149.696 87.2869 149.112 87.2081 148.445C87.1011 147.539 87.247 146.797 87.6459 146.218C88.0429 145.623 88.5451 145.169 89.1525 144.856C89.774 144.525 90.587 144.179 91.5917 143.819C92.3039 143.573 92.859 143.363 93.2571 143.187C93.6533 142.995 93.9724 142.764 94.2144 142.494C94.4704 142.206 94.5749 141.863 94.528 141.466L94.4858 141.108C94.4032 140.409 94.1754 139.912 93.8023 139.618C93.4273 139.308 92.8744 139.196 92.1435 139.282C91.5238 139.356 91.0238 139.624 90.6436 140.088C90.2615 140.536 90.1033 141.038 90.169 141.594C90.2346 142.15 90.1372 142.621 89.8766 143.006C89.6141 143.375 89.2365 143.589 88.744 143.647C88.315 143.698 87.9167 143.6 87.5493 143.353C87.1818 143.107 86.9718 142.761 86.9192 142.316C86.8442 141.681 87.0178 141.104 87.44 140.587C87.8763 140.052 88.4767 139.611 89.2411 139.263C90.0056 138.915 90.8327 138.688 91.7225 138.583C93.375 138.388 94.6678 138.557 95.6009 139.092C96.5322 139.61 97.0822 140.447 97.251 141.603L97.9322 147.371C98.0148 148.07 98.1066 148.575 98.2077 148.885C98.3088 149.196 98.4944 149.335 98.7645 149.303C99.1459 149.258 99.4425 148.836 99.6543 148.038L100.374 148.195C100.197 149.021 99.9153 149.634 99.5276 150.035C99.1539 150.417 98.681 150.642 98.109 150.71C97.3304 150.802 96.7073 150.642 96.2398 150.23C95.7862 149.8 95.4765 149.087 95.3106 148.092C95.0661 149.023 94.6332 149.791 94.0119 150.396C93.4065 150.999 92.5953 151.361 91.5784 151.481ZM89.8747 148.106C89.9498 148.741 90.2192 149.249 90.683 149.629C91.1608 149.992 91.7413 150.133 92.4246 150.052C93.3939 149.937 94.1007 149.443 94.5453 148.569C94.9879 147.679 95.1389 146.638 94.9981 145.446L94.7026 142.944C94.5204 143.175 94.2807 143.396 93.9836 143.609C93.6846 143.805 93.293 144.036 92.8089 144.303C92.1436 144.672 91.5955 145.01 91.1647 145.319C90.7499 145.626 90.4089 146.012 90.1417 146.479C89.8886 146.928 89.7996 147.47 89.8747 148.106ZM100.554 139.159L100.396 138.839L99.0611 138.997L98.9598 138.139L99.9608 138.021C100.581 137.948 101.053 137.586 101.379 136.935C101.705 136.284 101.866 135.46 101.86 134.461L102.695 134.363L103.083 137.652L104.799 137.449L104.901 138.307L103.184 138.51L104.144 146.638C104.227 147.337 104.319 147.841 104.42 148.152C104.521 148.462 104.707 148.601 104.977 148.569C105.358 148.524 105.655 148.103 105.866 147.304L106.586 147.461C106.41 148.287 106.128 148.901 105.74 149.301C105.366 149.683 104.893 149.908 104.321 149.976C103.527 150.07 102.895 149.903 102.425 149.475C101.97 149.029 101.665 148.292 101.512 147.263L100.554 139.159Z" fill="black"/>
<circle cx="157.241" cy="133.773" r="4" transform="rotate(-6.73598 157.241 133.773)" fill="black"/>
<path d="M210.295 136.348L210.51 136.322C210.764 136.292 210.935 136.175 211.024 135.972C211.111 135.752 211.127 135.412 211.073 134.951L209.575 122.271C209.521 121.81 209.427 121.491 209.293 121.314C209.157 121.12 208.962 121.038 208.708 121.068L208.494 121.094L208.409 120.379L214.654 119.641L214.844 119.619C216.961 119.401 218.552 119.567 219.616 120.118C220.696 120.668 221.318 121.641 221.484 123.04C221.59 123.945 221.464 124.717 221.105 125.356C220.745 125.995 220.13 126.518 219.26 126.927C220.484 127.057 221.423 127.437 222.077 128.069C222.732 128.7 223.128 129.596 223.265 130.756C223.449 132.313 223.11 133.537 222.249 134.428C221.385 135.304 219.948 135.884 217.935 136.17L210.38 137.063L210.295 136.348ZM217.395 135.485C218.634 135.339 219.503 134.914 220 134.211C220.495 133.492 220.662 132.449 220.5 131.082C220.346 129.779 219.948 128.86 219.304 128.324C218.661 127.787 217.72 127.592 216.48 127.739L212.977 128.153L213.891 135.899L217.395 135.485ZM215.535 127.101C216.774 126.955 217.649 126.586 218.159 125.994C218.667 125.386 218.854 124.51 218.719 123.366C218.58 122.19 218.193 121.366 217.557 120.893C216.935 120.403 215.996 120.232 214.741 120.38L212.095 120.693L212.889 127.414L215.535 127.101ZM231.185 134.992C229.993 135.133 228.88 134.982 227.845 134.541C226.81 134.099 225.957 133.426 225.287 132.523C224.616 131.619 224.21 130.572 224.07 129.38C223.929 128.188 224.08 127.083 224.524 126.064C224.965 125.029 225.639 124.184 226.544 123.529C227.448 122.859 228.496 122.453 229.687 122.312C230.768 122.185 231.778 122.283 232.719 122.607C233.659 122.931 234.419 123.429 234.998 124.102C235.591 124.757 235.937 125.505 236.037 126.347C236.13 127.142 235.934 127.801 235.449 128.326C234.977 128.833 234.264 129.143 233.311 129.255C232.151 129.392 230.018 129.41 226.913 129.31C227.214 130.628 227.786 131.656 228.631 132.394C229.491 133.13 230.565 133.422 231.852 133.27C232.726 133.167 233.511 132.857 234.207 132.339C234.917 131.804 235.502 131.099 235.963 130.223L236.518 130.423C236.031 131.753 235.326 132.811 234.404 133.597C233.481 134.383 232.409 134.848 231.185 134.992ZM226.83 128.812L230.953 128.325C231.954 128.207 232.632 128.006 232.985 127.723C233.354 127.438 233.5 126.969 233.423 126.318C233.346 125.666 233.132 125.079 232.78 124.557C232.442 124.017 232.008 123.617 231.478 123.357C230.962 123.08 230.418 122.975 229.846 123.043C229.115 123.129 228.499 123.435 227.997 123.962C227.51 124.471 227.161 125.132 226.951 125.946C226.739 126.745 226.689 127.621 226.802 128.574L226.83 128.812ZM238.04 133.071L238.254 133.045C238.525 133.014 238.694 132.881 238.763 132.647C238.846 132.396 238.849 131.944 238.772 131.293L237.993 124.691C237.914 124.023 237.806 123.585 237.668 123.375C237.547 123.164 237.351 123.075 237.081 123.107L236.866 123.132L236.782 122.417L239.72 121.514L240.316 121.444L240.533 123.279C240.786 122.556 241.175 121.962 241.7 121.498C242.225 121.033 242.893 120.753 243.703 120.657C244.275 120.589 244.83 120.653 245.369 120.847C245.923 121.039 246.385 121.339 246.756 121.746C247.124 122.138 247.339 122.596 247.401 123.12C247.456 123.581 247.344 123.997 247.065 124.368C246.785 124.723 246.423 124.927 245.978 124.98C245.517 125.034 245.101 124.922 244.73 124.644C244.372 124.348 244.167 123.969 244.112 123.509C244.047 122.952 243.894 122.551 243.656 122.306C243.418 122.06 243.06 121.965 242.583 122.022C241.836 122.11 241.333 122.556 241.074 123.36C240.814 124.164 240.74 125.035 240.851 125.972L241.442 130.977C241.519 131.629 241.619 132.068 241.742 132.295C241.88 132.504 242.084 132.593 242.354 132.561L242.568 132.536L242.653 133.251L238.124 133.786L238.04 133.071ZM248.584 131.825L248.798 131.8C249.068 131.768 249.238 131.635 249.307 131.402C249.39 131.15 249.393 130.699 249.316 130.047L247.974 118.678C247.895 118.011 247.787 117.573 247.649 117.363C247.527 117.152 247.332 117.062 247.061 117.094L246.847 117.12L246.762 116.405L249.701 115.502L250.297 115.431L251.642 126.824L255.049 123.135C255.237 122.952 255.322 122.789 255.305 122.646C255.29 122.519 255.194 122.449 255.015 122.438C254.688 122.396 254.405 122.253 254.167 122.007C253.942 121.743 253.808 121.429 253.765 121.063C253.716 120.65 253.832 120.266 254.112 119.911C254.409 119.554 254.795 119.347 255.272 119.29C255.717 119.238 256.117 119.352 256.472 119.632C256.843 119.91 257.057 120.288 257.113 120.765C257.153 121.098 257.11 121.418 256.985 121.722C256.876 122.025 256.665 122.356 256.353 122.715C255.703 123.485 255.006 124.268 254.262 125.065L258.021 129.067C258.589 129.645 259.013 130.03 259.294 130.222C259.59 130.413 259.873 130.492 260.143 130.46L260.263 130.446L260.347 131.161L260.037 131.198L256.891 131.569L252.484 126.991L251.758 127.801L251.986 129.732C252.063 130.383 252.163 130.823 252.286 131.05C252.424 131.259 252.628 131.348 252.898 131.316L253.112 131.291L253.197 132.006L248.668 132.541L248.584 131.825ZM264.959 131.003C264.197 131.093 263.496 131.023 262.856 130.792C262.233 130.56 261.715 130.202 261.304 129.719C260.906 129.218 260.668 128.634 260.589 127.967C260.482 127.061 260.628 126.319 261.027 125.74C261.424 125.145 261.926 124.691 262.534 124.378C263.155 124.047 263.968 123.701 264.973 123.341C265.685 123.095 266.24 122.885 266.638 122.709C267.034 122.517 267.353 122.286 267.595 122.016C267.851 121.728 267.956 121.385 267.909 120.988L267.867 120.63C267.784 119.931 267.556 119.435 267.183 119.14C266.808 118.83 266.255 118.718 265.524 118.805C264.905 118.878 264.405 119.146 264.025 119.61C263.642 120.058 263.484 120.56 263.55 121.116C263.616 121.672 263.518 122.143 263.258 122.528C262.995 122.897 262.618 123.111 262.125 123.169C261.696 123.22 261.298 123.122 260.93 122.876C260.563 122.629 260.353 122.283 260.3 121.838C260.225 121.203 260.399 120.626 260.821 120.109C261.257 119.574 261.858 119.133 262.622 118.785C263.387 118.437 264.214 118.21 265.104 118.105C266.756 117.91 268.049 118.079 268.982 118.614C269.913 119.132 270.463 119.969 270.632 121.125L271.313 126.893C271.396 127.593 271.488 128.097 271.589 128.408C271.69 128.718 271.875 128.857 272.146 128.825C272.527 128.78 272.823 128.358 273.035 127.56L273.755 127.717C273.578 128.543 273.296 129.156 272.909 129.557C272.535 129.939 272.062 130.164 271.49 130.232C270.711 130.324 270.088 130.164 269.621 129.752C269.167 129.322 268.858 128.609 268.692 127.614C268.447 128.545 268.014 129.313 267.393 129.918C266.787 130.521 265.976 130.883 264.959 131.003ZM263.256 127.628C263.331 128.263 263.6 128.771 264.064 129.151C264.542 129.514 265.122 129.655 265.806 129.574C266.775 129.459 267.482 128.965 267.926 128.091C268.369 127.201 268.52 126.16 268.379 124.968L268.084 122.466C267.901 122.697 267.662 122.918 267.365 123.131C267.066 123.327 266.674 123.559 266.19 123.825C265.525 124.194 264.977 124.532 264.546 124.841C264.131 125.148 263.79 125.534 263.523 126.001C263.27 126.45 263.181 126.992 263.256 127.628ZM274.629 128.749L274.844 128.724C275.114 128.692 275.284 128.559 275.353 128.325C275.436 128.074 275.439 127.623 275.362 126.971L274.019 115.602C273.94 114.935 273.832 114.496 273.695 114.287C273.573 114.076 273.377 113.986 273.107 114.018L272.892 114.043L272.808 113.328L275.746 112.426L276.342 112.355L277.116 118.91C277.419 118.197 277.905 117.608 278.575 117.142C279.259 116.659 280.038 116.365 280.912 116.262C282.12 116.119 283.088 116.335 283.816 116.91C284.544 117.484 285.006 118.526 285.2 120.033L285.873 125.73C285.95 126.381 286.05 126.82 286.173 127.047C286.311 127.257 286.523 127.345 286.809 127.311L286.999 127.288L287.084 128.003L286.154 128.113L283.485 128.428L282.555 128.538L282.471 127.823L282.685 127.798C282.955 127.766 283.125 127.633 283.194 127.399C283.277 127.148 283.28 126.696 283.203 126.045L282.542 120.444C282.424 119.443 282.142 118.695 281.697 118.199C281.266 117.686 280.669 117.475 279.906 117.565C279.048 117.666 278.383 118.043 277.913 118.695C277.442 119.346 277.261 120.133 277.37 121.055L278.031 126.656C278.108 127.307 278.208 127.747 278.332 127.974C278.469 128.183 278.673 128.272 278.943 128.24L279.158 128.214L279.242 128.929L274.714 129.464L274.629 128.749Z" fill="black"/>
<circle cx="337.985" cy="112.426" r="4" transform="rotate(-6.73598 337.985 112.426)" fill="black"/>
<path d="M391.233 114.977L391.447 114.952C391.718 114.92 391.887 114.787 391.956 114.553C392.039 114.302 392.042 113.85 391.965 113.199L390.583 101.496C390.516 100.924 390.236 100.667 389.743 100.726C389.552 100.748 389.328 100.823 389.069 100.95L388.987 100.259L392.35 98.6534L392.946 98.5831L394.635 112.884C394.712 113.535 394.812 113.974 394.936 114.201C395.073 114.411 395.277 114.5 395.547 114.468L395.761 114.442L395.846 115.157L391.317 115.692L391.233 114.977ZM405.055 114.456C403.609 114.627 402.253 114.401 400.987 113.777C399.721 113.153 398.669 112.222 397.83 110.984C397.005 109.728 396.496 108.282 396.302 106.645C396.109 105.008 396.268 103.491 396.78 102.094C397.305 100.678 398.111 99.5197 399.197 98.6181C400.282 97.7165 401.556 97.1794 403.018 97.0068C404.464 96.836 405.82 97.0625 407.086 97.6863C408.352 98.3101 409.397 99.25 410.222 100.506C411.061 101.744 411.577 103.181 411.771 104.818C411.964 106.455 411.798 107.981 411.272 109.396C410.761 110.794 409.962 111.943 408.876 112.845C407.791 113.747 406.517 114.284 405.055 114.456ZM399.329 106.288C399.654 109.036 400.282 111.008 401.212 112.203C402.141 113.383 403.408 113.878 405.012 113.688C406.586 113.502 407.677 112.721 408.288 111.344C408.915 109.965 409.067 107.909 408.744 105.176C408.419 102.427 407.792 100.463 406.864 99.2834C405.933 98.0883 404.665 97.5855 403.061 97.7751C401.487 97.9609 400.388 98.7433 399.761 100.122C399.15 101.499 399.006 103.555 399.329 106.288ZM422.419 112.405C420.973 112.576 419.617 112.35 418.351 111.726C417.085 111.102 416.032 110.171 415.193 108.933C414.368 107.677 413.859 106.231 413.666 104.594C413.473 102.958 413.632 101.44 414.143 100.043C414.669 98.6274 415.475 97.4689 416.56 96.5673C417.646 95.6657 418.92 95.1286 420.382 94.9559C421.828 94.7852 423.184 95.0117 424.45 95.6355C425.716 96.2593 426.761 97.1992 427.586 98.4551C428.425 99.6932 428.941 101.131 429.134 102.767C429.328 104.404 429.162 105.93 428.636 107.345C428.124 108.743 427.326 109.893 426.24 110.794C425.154 111.696 423.88 112.233 422.419 112.405ZM416.693 104.237C417.018 106.986 417.645 108.958 418.576 110.153C419.505 111.332 420.771 111.827 422.376 111.637C423.949 111.451 425.041 110.67 425.652 109.293C426.278 107.914 426.43 105.858 426.107 103.125C425.783 100.376 425.156 98.4118 424.227 97.2326C423.297 96.0375 422.029 95.5347 420.424 95.7243C418.851 95.9101 417.751 96.6925 417.125 98.0715C416.514 99.4486 416.37 101.504 416.693 104.237ZM433.671 93.193C434.847 93.0541 435.792 93.4178 436.507 94.284C437.219 95.1342 437.675 96.4015 437.874 98.0858C438.073 99.7701 437.935 101.124 437.459 102.146C436.998 103.152 436.156 103.726 434.932 103.871C434.185 103.959 433.525 103.82 432.95 103.452C432.374 103.085 431.905 102.521 431.541 101.758C431.191 100.978 430.95 100.031 430.819 98.9191C430.62 97.2348 430.744 95.899 431.192 94.9117C431.637 93.9085 432.464 93.3356 433.671 93.193ZM433.846 94.6707C433.242 94.7421 432.835 95.1203 432.626 95.8056C432.431 96.4731 432.409 97.4424 432.559 98.7136C432.709 99.9847 432.958 100.93 433.305 101.55C433.668 102.167 434.151 102.441 434.755 102.369C435.375 102.296 435.798 101.924 436.025 101.253C436.25 100.565 436.286 99.5784 436.134 98.2913C435.984 97.0201 435.72 96.0846 435.343 95.4847C434.965 94.8689 434.465 94.5975 433.846 94.6707ZM444.592 92.1449L437.163 110.277L435.328 110.494L442.756 92.3616L444.592 92.1449ZM444.892 98.7794C445.67 98.6875 446.347 98.8251 446.922 99.1921C447.495 99.5433 447.964 100.1 448.328 100.863C448.706 101.608 448.962 102.544 449.095 103.672C449.294 105.357 449.155 106.71 448.68 107.733C448.219 108.738 447.376 109.313 446.153 109.457C445.406 109.545 444.745 109.406 444.17 109.039C443.595 108.672 443.126 108.107 442.762 107.344C442.412 106.564 442.171 105.618 442.04 104.506C441.841 102.821 441.965 101.485 442.412 100.498C442.858 99.495 443.684 98.9221 444.892 98.7794ZM445.069 100.281C444.465 100.352 444.058 100.723 443.847 101.392C443.652 102.06 443.63 103.029 443.78 104.3C443.932 105.587 444.181 106.54 444.528 107.16C444.889 107.762 445.372 108.027 445.976 107.956C446.595 107.882 447.019 107.51 447.245 106.839C447.472 106.168 447.509 105.181 447.355 103.878C447.205 102.607 446.941 101.671 446.564 101.071C446.187 100.471 445.689 100.208 445.069 100.281ZM456.51 107.267L456.724 107.242C456.994 107.21 457.164 107.077 457.233 106.844C457.316 106.592 457.319 106.141 457.242 105.489L455.899 94.1202C455.82 93.4528 455.712 93.0145 455.575 92.8052C455.453 92.594 455.257 92.5043 454.987 92.5362L454.773 92.5616L454.688 91.8465L457.627 90.9436L458.223 90.8733L458.997 97.4277C459.299 96.7153 459.785 96.1262 460.455 95.6604C461.139 95.1768 461.918 94.8834 462.792 94.7802C464 94.6376 464.968 94.8535 465.696 95.4281C466.425 96.0026 466.886 97.0437 467.08 98.5513L467.753 104.248C467.83 104.899 467.93 105.338 468.054 105.566C468.191 105.775 468.403 105.863 468.689 105.829L468.88 105.806L468.964 106.521L468.035 106.631L465.365 106.946L464.436 107.056L464.351 106.341L464.566 106.316C464.836 106.284 465.005 106.151 465.074 105.917C465.157 105.666 465.161 105.214 465.084 104.563L464.422 98.9619C464.304 97.9609 464.022 97.2128 463.577 96.7176C463.146 96.2046 462.549 95.9931 461.786 96.0832C460.928 96.1846 460.264 96.5611 459.793 97.2128C459.322 97.8645 459.141 98.6512 459.25 99.5728L459.912 105.174C459.988 105.825 460.089 106.265 460.212 106.492C460.35 106.701 460.554 106.79 460.824 106.758L461.038 106.732L461.123 107.448L456.594 107.982L456.51 107.267ZM474.049 106.307C473.286 106.398 472.585 106.327 471.946 106.097C471.322 105.864 470.805 105.506 470.393 105.023C469.996 104.523 469.757 103.938 469.679 103.271C469.572 102.365 469.718 101.623 470.117 101.044C470.513 100.45 471.016 99.9957 471.623 99.6823C472.245 99.3511 473.058 99.0053 474.062 98.645C474.774 98.3998 475.33 98.1892 475.728 98.0133C476.124 97.8215 476.443 97.5905 476.685 97.3202C476.941 97.0322 477.046 96.6896 476.999 96.2923L476.956 95.9348C476.874 95.2357 476.646 94.739 476.273 94.4447C475.898 94.1345 475.345 94.0226 474.614 94.109C473.994 94.1822 473.494 94.4506 473.114 94.9144C472.732 95.3624 472.574 95.8644 472.64 96.4205C472.705 96.9766 472.608 97.4473 472.347 97.8326C472.085 98.2019 471.707 98.4157 471.215 98.4738C470.786 98.5245 470.387 98.4265 470.02 98.1799C469.652 97.9333 469.442 97.5876 469.39 97.1427C469.315 96.5071 469.488 95.9308 469.911 95.4137C470.347 94.8788 470.947 94.4373 471.712 94.0893C472.476 93.7412 473.303 93.5146 474.193 93.4095C475.846 93.2143 477.138 93.3839 478.072 93.9181C479.003 94.4365 479.553 95.2737 479.722 96.4299L480.403 102.198C480.485 102.897 480.577 103.402 480.678 103.712C480.779 104.022 480.965 104.161 481.235 104.13C481.616 104.084 481.913 103.663 482.125 102.864L482.844 103.021C482.668 103.848 482.386 104.461 481.998 104.861C481.624 105.244 481.152 105.469 480.58 105.536C479.801 105.628 479.178 105.468 478.71 105.056C478.257 104.626 477.947 103.914 477.781 102.918C477.537 103.849 477.104 104.617 476.483 105.223C475.877 105.826 475.066 106.187 474.049 106.307ZM472.345 102.932C472.42 103.568 472.69 104.075 473.154 104.456C473.631 104.818 474.212 104.959 474.895 104.878C475.864 104.764 476.571 104.27 477.016 103.395C477.459 102.505 477.609 101.464 477.469 100.273L477.173 97.7701C476.991 98.001 476.751 98.2227 476.454 98.435C476.155 98.6314 475.764 98.8629 475.28 99.1296C474.614 99.4981 474.066 99.8368 473.635 100.145C473.22 100.452 472.879 100.839 472.612 101.305C472.359 101.754 472.27 102.296 472.345 102.932ZM483.803 104.769L483.719 104.054L483.933 104.028C484.204 103.996 484.373 103.864 484.442 103.63C484.525 103.378 484.528 102.927 484.451 102.275L483.109 90.9065C483.03 90.2391 482.922 89.8008 482.784 89.5915C482.663 89.3803 482.467 89.2906 482.197 89.3225L481.982 89.3479L481.898 88.6328L484.836 87.73L485.432 87.6596L487.121 101.96C487.198 102.612 487.298 103.051 487.422 103.278C487.559 103.487 487.771 103.575 488.057 103.541L488.247 103.519L488.332 104.234L487.402 104.344L484.733 104.659L483.803 104.769ZM493.577 104.001C492.815 104.091 492.114 104.021 491.474 103.79C490.85 103.558 490.333 103.2 489.921 102.717C489.524 102.216 489.286 101.632 489.207 100.965C489.1 100.059 489.246 99.3167 489.645 98.7379C490.042 98.1432 490.544 97.6892 491.151 97.3758C491.773 97.0446 492.586 96.6988 493.591 96.3385C494.303 96.0933 494.858 95.8827 495.256 95.7068C495.652 95.515 495.971 95.284 496.213 95.0137C496.469 94.7257 496.574 94.3831 496.527 93.9859L496.485 93.6283C496.402 92.9292 496.174 92.4325 495.801 92.1382C495.426 91.8281 494.873 91.7161 494.142 91.8025C493.523 91.8757 493.023 92.1442 492.643 92.608C492.26 93.0559 492.102 93.5579 492.168 94.114C492.234 94.6702 492.136 95.1408 491.875 95.5261C491.613 95.8954 491.235 96.1092 490.743 96.1673C490.314 96.218 489.916 96.1201 489.548 95.8735C489.181 95.6269 488.971 95.2811 488.918 94.8362C488.843 94.2006 489.017 93.6243 489.439 93.1072C489.875 92.5723 490.476 92.1308 491.24 91.7828C492.004 91.4347 492.832 91.2081 493.721 91.103C495.374 90.9078 496.667 91.0774 497.6 91.6116C498.531 92.13 499.081 92.9672 499.25 94.1234L499.931 99.8913C500.014 100.59 500.106 101.095 500.207 101.405C500.308 101.716 500.493 101.855 500.763 101.823C501.145 101.778 501.441 101.356 501.653 100.558L502.373 100.715C502.196 101.541 501.914 102.154 501.527 102.555C501.153 102.937 500.68 103.162 500.108 103.23C499.329 103.322 498.706 103.162 498.239 102.75C497.785 102.32 497.475 101.607 497.31 100.612C497.065 101.543 496.632 102.311 496.011 102.916C495.405 103.519 494.594 103.881 493.577 104.001ZM491.874 100.625C491.949 101.261 492.218 101.769 492.682 102.149C493.16 102.512 493.74 102.653 494.424 102.572C495.393 102.457 496.1 101.963 496.544 101.089C496.987 100.199 497.138 99.1579 496.997 97.9662L496.701 95.4636C496.519 95.6945 496.28 95.9162 495.983 96.1285C495.683 96.3249 495.292 96.5565 494.808 96.8231C494.143 97.1917 493.594 97.5303 493.164 97.8389C492.749 98.1457 492.408 98.5324 492.141 98.9989C491.888 99.4477 491.799 99.9899 491.874 100.625ZM503.332 102.462L503.247 101.747L503.462 101.722C503.732 101.69 503.901 101.557 503.971 101.323C504.054 101.072 504.057 100.62 503.98 99.969L502.637 88.6C502.558 87.9326 502.45 87.4943 502.312 87.285C502.191 87.0738 501.995 86.9842 501.725 87.0161L501.51 87.0414L501.426 86.3264L504.364 85.4235L504.96 85.3531L506.649 99.6537C506.726 100.305 506.826 100.744 506.95 100.972C507.087 101.181 507.299 101.269 507.585 101.235L507.776 101.212L507.86 101.927L506.931 102.037L504.261 102.352L503.332 102.462Z" fill="black"/>
<circle cx="558.453" cy="86.386" r="4" transform="rotate(-6.73598 558.453 86.386)" fill="black"/>
</svg>
