<svg width="600" height="211" viewBox="0 0 600 211" fill="none" xmlns="http://www.w3.org/2000/svg">
<rect width="1111.34" height="80" transform="translate(-43.4727 130.941) rotate(-6.73598)" fill="#FFAA00"/>
<path d="M-93.1162 185.924L-92.9016 185.899C-92.6315 185.867 -92.4619 185.734 -92.3929 185.5C-92.3098 185.249 -92.3067 184.797 -92.3837 184.146L-93.7659 172.443C-93.8334 171.871 -94.1135 171.614 -94.6061 171.672C-94.7967 171.695 -95.0215 171.77 -95.2804 171.897L-95.362 171.206L-91.9991 169.6L-91.4033 169.53L-89.7142 183.83C-89.6373 184.482 -89.5371 184.921 -89.4136 185.148C-89.2761 185.358 -89.0723 185.446 -88.8021 185.414L-88.5876 185.389L-88.5032 186.104L-93.0317 186.639L-93.1162 185.924ZM-79.2942 185.403C-80.7402 185.574 -82.0961 185.347 -83.362 184.724C-84.6279 184.1 -85.6804 183.169 -86.5194 181.931C-87.3444 180.675 -87.8535 179.228 -88.0468 177.592C-88.2401 175.955 -88.081 174.438 -87.5694 173.04C-87.0438 171.625 -86.2381 170.466 -85.1524 169.565C-84.0666 168.663 -82.7928 168.126 -81.331 167.954C-79.8851 167.783 -78.5291 168.009 -77.2632 168.633C-75.9973 169.257 -74.9518 170.197 -74.1268 171.453C-73.2878 172.691 -72.7717 174.128 -72.5784 175.765C-72.3851 177.401 -72.5512 178.927 -73.0768 180.343C-73.5884 181.741 -74.3871 182.89 -75.4728 183.792C-76.5586 184.693 -77.8324 185.23 -79.2942 185.403ZM-85.0199 177.234C-84.6952 179.983 -84.0676 181.955 -83.137 183.15C-82.2083 184.329 -80.9415 184.824 -79.3366 184.635C-77.7636 184.449 -76.6717 183.667 -76.061 182.29C-75.4344 180.911 -75.2825 178.855 -75.6053 176.122C-75.93 173.373 -76.5567 171.409 -77.4854 170.23C-78.416 169.035 -79.6837 168.532 -81.2886 168.722C-82.8617 168.908 -83.9615 169.69 -84.588 171.069C-85.1987 172.446 -85.3427 174.501 -85.0199 177.234ZM-61.9305 183.352C-63.3765 183.523 -64.7324 183.297 -65.9983 182.673C-67.2642 182.049 -68.3167 181.118 -69.1557 179.88C-69.9807 178.624 -70.4899 177.178 -70.6832 175.541C-70.8765 173.904 -70.7173 172.387 -70.2057 170.99C-69.6801 169.574 -68.8744 168.416 -67.7887 167.514C-66.7029 166.612 -65.4292 166.075 -63.9673 165.903C-62.5214 165.732 -61.1654 165.958 -59.8995 166.582C-58.6336 167.206 -57.5882 168.146 -56.7632 169.402C-55.9241 170.64 -55.408 172.077 -55.2147 173.714C-55.0214 175.351 -55.1875 176.877 -55.7131 178.292C-56.2247 179.69 -57.0234 180.839 -58.1091 181.741C-59.1949 182.642 -60.4687 183.18 -61.9305 183.352ZM-67.6562 175.183C-67.3315 177.932 -66.7039 179.904 -65.7733 181.099C-64.8446 182.279 -63.5778 182.773 -61.9729 182.584C-60.3999 182.398 -59.308 181.617 -58.6973 180.24C-58.0707 178.861 -57.9188 176.805 -58.2416 174.072C-58.5663 171.323 -59.193 169.359 -60.1217 168.179C-61.0523 166.984 -62.3201 166.482 -63.9249 166.671C-65.498 166.857 -66.5978 167.639 -67.2244 169.018C-67.8351 170.395 -67.979 172.45 -67.6562 175.183ZM-50.678 164.14C-49.5022 164.001 -48.557 164.365 -47.8425 165.231C-47.1298 166.081 -46.674 167.348 -46.4751 169.033C-46.2761 170.717 -46.4143 172.07 -46.8897 173.093C-47.3509 174.098 -48.1933 174.673 -49.4168 174.818C-50.1637 174.906 -50.8246 174.766 -51.3996 174.399C-51.9746 174.032 -52.4441 173.467 -52.8081 172.705C-53.158 171.924 -53.3987 170.978 -53.53 169.866C-53.729 168.182 -53.6048 166.846 -53.1575 165.858C-52.7121 164.855 -51.8856 164.282 -50.678 164.14ZM-50.5035 165.618C-51.1073 165.689 -51.5137 166.067 -51.7228 166.752C-51.9178 167.42 -51.9403 168.389 -51.7901 169.66C-51.64 170.932 -51.3914 171.877 -51.0443 172.496C-50.6814 173.114 -50.198 173.387 -49.5942 173.316C-48.9745 173.243 -48.5512 172.871 -48.3244 172.199C-48.0994 171.512 -48.063 170.525 -48.215 169.238C-48.3651 167.967 -48.6287 167.031 -49.0056 166.431C-49.3845 165.816 -49.8838 165.544 -50.5035 165.618ZM-39.7576 163.092L-47.186 181.224L-49.0212 181.441L-41.5928 163.308L-39.7576 163.092ZM-39.4573 169.726C-38.6787 169.634 -38.0019 169.772 -37.4269 170.139C-36.8537 170.49 -36.3852 171.047 -36.0212 171.81C-35.6432 172.554 -35.3876 173.491 -35.2544 174.619C-35.0554 176.303 -35.1936 177.657 -35.6689 178.68C-36.1302 179.685 -36.9726 180.26 -38.1961 180.404C-38.9429 180.492 -39.6039 180.353 -40.1789 179.986C-40.7539 179.619 -41.2234 179.054 -41.5874 178.291C-41.9373 177.511 -42.178 176.565 -42.3093 175.452C-42.5083 173.768 -42.3841 172.432 -41.9368 171.445C-41.4914 170.442 -40.6649 169.869 -39.4573 169.726ZM-39.2799 171.228C-39.8837 171.299 -40.2911 171.669 -40.502 172.339C-40.6971 173.006 -40.7196 173.976 -40.5694 175.247C-40.4174 176.534 -40.1679 177.487 -39.8208 178.107C-39.4597 178.709 -38.9773 178.974 -38.3735 178.902C-37.7538 178.829 -37.3305 178.457 -37.1037 177.786C-36.8769 177.115 -36.8404 176.127 -36.9943 174.825C-37.1444 173.553 -37.408 172.618 -37.7849 172.018C-38.1619 171.418 -38.6602 171.155 -39.2799 171.228ZM-27.8395 178.214L-27.625 178.189C-27.3549 178.157 -27.1853 178.024 -27.1162 177.79C-27.0331 177.539 -27.0301 177.087 -27.107 176.436L-28.4498 165.067C-28.5286 164.4 -28.6368 163.961 -28.7743 163.752C-28.8959 163.541 -29.0918 163.451 -29.3619 163.483L-29.5764 163.508L-29.6608 162.793L-26.7225 161.89L-26.1266 161.82L-25.3525 168.374C-25.0499 167.662 -24.5637 167.073 -23.8937 166.607C-23.2097 166.124 -22.4307 165.83 -21.5568 165.727C-20.3492 165.584 -19.3812 165.8 -18.6528 166.375C-17.9244 166.949 -17.4631 167.99 -17.2689 169.498L-16.5961 175.194C-16.5191 175.846 -16.4189 176.285 -16.2954 176.512C-16.1579 176.722 -15.9462 176.809 -15.6602 176.776L-15.4695 176.753L-15.385 177.468L-16.3146 177.578L-18.984 177.893L-19.9136 178.003L-19.998 177.288L-19.7835 177.263C-19.5134 177.231 -19.3438 177.098 -19.2747 176.864C-19.1916 176.613 -19.1886 176.161 -19.2655 175.51L-19.9271 169.909C-20.0453 168.908 -20.327 168.16 -20.7721 167.664C-21.2033 167.151 -21.8002 166.94 -22.5629 167.03C-23.4209 167.131 -24.0854 167.508 -24.5562 168.16C-25.027 168.811 -25.208 169.598 -25.0991 170.52L-24.4376 176.121C-24.3606 176.772 -24.2604 177.211 -24.1369 177.438C-23.9994 177.648 -23.7956 177.736 -23.5255 177.705L-23.311 177.679L-23.2265 178.394L-27.7551 178.929L-27.8395 178.214ZM-10.3001 177.254C-11.0628 177.344 -11.7639 177.274 -12.4034 177.043C-13.027 176.811 -13.5445 176.453 -13.956 175.97C-14.3535 175.469 -14.5916 174.885 -14.6705 174.218C-14.7774 173.312 -14.6315 172.57 -14.2326 171.991C-13.8356 171.396 -13.3334 170.942 -12.726 170.629C-12.1045 170.298 -11.2915 169.952 -10.2868 169.592C-9.57466 169.347 -9.01953 169.136 -8.62142 168.96C-8.22518 168.768 -7.90607 168.537 -7.6641 168.267C-7.40812 167.979 -7.30358 167.636 -7.3505 167.239L-7.39273 166.882C-7.4753 166.182 -7.70314 165.686 -8.07623 165.391C-8.4512 165.081 -9.00414 164.969 -9.73506 165.056C-10.3548 165.129 -10.8547 165.397 -11.2349 165.861C-11.617 166.309 -11.7752 166.811 -11.7096 167.367C-11.6439 167.923 -11.7413 168.394 -12.002 168.779C-12.2644 169.149 -12.642 169.362 -13.1346 169.421C-13.5636 169.471 -13.9618 169.373 -14.3293 169.127C-14.6967 168.88 -14.9067 168.534 -14.9593 168.089C-15.0344 167.454 -14.8608 166.878 -14.4385 166.36C-14.0022 165.826 -13.4019 165.384 -12.6374 165.036C-11.873 164.688 -11.0458 164.461 -10.156 164.356C-8.50349 164.161 -7.21068 164.331 -6.27758 164.865C-5.34635 165.383 -4.79635 166.22 -4.62757 167.377L-3.94632 173.145C-3.86375 173.844 -3.77192 174.348 -3.67082 174.659C-3.56973 174.969 -3.38412 175.108 -3.114 175.076C-2.73265 175.031 -2.43607 174.61 -2.22425 173.811L-1.5049 173.968C-1.68119 174.794 -1.9632 175.408 -2.35093 175.808C-2.72464 176.19 -3.19752 176.415 -3.76954 176.483C-4.54813 176.575 -5.1712 176.415 -5.63875 176.003C-6.09229 175.573 -6.40201 174.86 -6.56791 173.865C-6.81239 174.796 -7.24529 175.564 -7.8666 176.169C-8.47203 176.772 -9.28322 177.134 -10.3001 177.254ZM-12.0038 173.879C-11.9288 174.514 -11.6593 175.022 -11.1955 175.402C-10.7177 175.765 -10.1372 175.906 -9.45393 175.825C-8.48467 175.711 -7.77777 175.216 -7.33324 174.342C-6.89058 173.452 -6.73963 172.411 -6.88039 171.219L-7.17597 168.717C-7.35813 168.948 -7.59779 169.169 -7.89494 169.382C-8.19396 169.578 -8.58551 169.81 -9.06958 170.076C-9.73494 170.445 -10.283 170.784 -10.7138 171.092C-11.1287 171.399 -11.4697 171.786 -11.7368 172.252C-11.9899 172.701 -12.0789 173.243 -12.0038 173.879ZM-0.545739 175.715L-0.630191 175L-0.415682 174.975C-0.14556 174.943 0.024033 174.81 0.0930965 174.577C0.176173 174.325 0.179238 173.874 0.102293 173.222L-1.24049 161.853C-1.31931 161.186 -1.42748 160.748 -1.56498 160.538C-1.68659 160.327 -1.88245 160.237 -2.15258 160.269L-2.36709 160.295L-2.45154 159.58L0.486842 158.677L1.0827 158.606L2.77174 172.907C2.84868 173.558 2.9489 173.998 3.07239 174.225C3.20989 174.434 3.42165 174.522 3.70766 174.488L3.89833 174.466L3.98278 175.181L3.05325 175.29L0.3838 175.606L-0.545739 175.715ZM9.22818 174.948C8.46548 175.038 7.7644 174.968 7.12494 174.737C6.50137 174.505 5.98383 174.147 5.57233 173.664C5.17484 173.163 4.93669 172.579 4.85786 171.911C4.75089 171.006 4.89684 170.263 5.2957 169.685C5.69269 169.09 6.1949 168.636 6.80234 168.323C7.42378 167.991 8.23684 167.646 9.24151 167.285C9.95366 167.04 10.5088 166.829 10.9069 166.654C11.3031 166.462 11.6223 166.231 11.8642 165.961C12.1202 165.672 12.2247 165.33 12.1778 164.933L12.1356 164.575C12.053 163.876 11.8252 163.379 11.4521 163.085C11.0771 162.775 10.5242 162.663 9.79327 162.749C9.17357 162.822 8.67361 163.091 8.29339 163.555C7.91129 164.003 7.75308 164.505 7.81877 165.061C7.88445 165.617 7.78699 166.088 7.52637 166.473C7.26388 166.842 6.88635 167.056 6.39377 167.114C5.96476 167.165 5.56652 167.067 5.19906 166.82C4.83159 166.574 4.62159 166.228 4.56904 165.783C4.49397 165.147 4.66757 164.571 5.08983 164.054C5.52611 163.519 6.12647 163.078 6.89092 162.73C7.65537 162.381 8.4825 162.155 9.37232 162.05C11.0248 161.855 12.3176 162.024 13.2507 162.558C14.182 163.077 14.732 163.914 14.9008 165.07L15.582 170.838C15.6646 171.537 15.7564 172.042 15.8575 172.352C15.9586 172.663 16.1442 172.802 16.4143 172.77C16.7957 172.725 17.0923 172.303 17.3041 171.505L18.0234 171.661C17.8471 172.488 17.5651 173.101 17.1774 173.501C16.8037 173.884 16.3308 174.109 15.7588 174.176C14.9802 174.268 14.3571 174.108 13.8896 173.696C13.436 173.267 13.1263 172.554 12.9604 171.559C12.7159 172.49 12.283 173.258 11.6617 173.863C11.0563 174.466 10.2451 174.828 9.22818 174.948ZM7.52449 171.572C7.59956 172.208 7.869 172.716 8.3328 173.096C8.81061 173.458 9.39114 173.599 10.0744 173.519C11.0437 173.404 11.7506 172.91 12.1951 172.036C12.6377 171.146 12.7887 170.105 12.6479 168.913L12.3524 166.41C12.1702 166.641 11.9305 166.863 11.6334 167.075C11.3344 167.272 10.9428 167.503 10.4587 167.77C9.79339 168.138 9.24532 168.477 8.81455 168.786C8.39967 169.093 8.05867 169.479 7.79155 169.946C7.53845 170.395 7.44943 170.937 7.52449 171.572ZM18.9826 173.409L18.8981 172.694L19.1126 172.669C19.3828 172.637 19.5524 172.504 19.6214 172.27C19.7045 172.019 19.7076 171.567 19.6306 170.916L18.2878 159.547C18.209 158.879 18.1008 158.441 17.9633 158.232C17.8417 158.021 17.6459 157.931 17.3757 157.963L17.1612 157.988L17.0768 157.273L20.0152 156.37L20.611 156.3L22.3001 170.6C22.377 171.252 22.4772 171.691 22.6007 171.918C22.7382 172.128 22.95 172.215 23.236 172.182L23.4267 172.159L23.5111 172.874L22.5816 172.984L19.9121 173.299L18.9826 173.409Z" fill="black"/>
<circle cx="74.1034" cy="157.333" r="4" transform="rotate(-6.73598 74.1034 157.333)" fill="black"/>
<path d="M127.173 159.905L127.388 159.88C127.642 159.85 127.813 159.733 127.902 159.529C127.989 159.31 128.005 158.969 127.951 158.509L126.498 146.21C126.421 145.559 126.314 145.128 126.176 144.919C126.053 144.692 125.856 144.594 125.586 144.626L125.371 144.651L125.287 143.936L129.816 143.402L129.9 144.117L129.709 144.139C129.423 144.173 129.239 144.316 129.156 144.567C129.087 144.801 129.091 145.243 129.167 145.895L130.769 159.457L131.723 159.344C133.47 159.138 134.733 158.843 135.509 158.462C136.302 158.078 136.772 157.628 136.921 157.111C137.083 156.576 137.111 155.856 137.004 154.95L137.743 154.863L138.269 159.32L127.258 160.62L127.173 159.905ZM145.642 158.836C144.45 158.977 143.337 158.826 142.302 158.384C141.267 157.943 140.414 157.27 139.744 156.367C139.073 155.463 138.668 154.415 138.527 153.224C138.386 152.032 138.537 150.927 138.981 149.907C139.423 148.872 140.096 148.028 141.002 147.373C141.905 146.702 142.953 146.297 144.145 146.156C145.225 146.028 146.236 146.126 147.176 146.45C148.116 146.774 148.876 147.273 149.455 147.945C150.048 148.6 150.394 149.349 150.494 150.191C150.588 150.986 150.392 151.645 149.906 152.17C149.434 152.676 148.721 152.986 147.768 153.099C146.608 153.236 144.475 153.254 141.37 153.154C141.671 154.471 142.243 155.499 143.088 156.237C143.948 156.974 145.022 157.266 146.309 157.114C147.183 157.01 147.968 156.7 148.664 156.183C149.374 155.648 149.959 154.943 150.42 154.066L150.975 154.267C150.488 155.597 149.783 156.655 148.861 157.441C147.939 158.226 146.866 158.691 145.642 158.836ZM141.287 152.656L145.411 152.169C146.412 152.051 147.089 151.85 147.442 151.566C147.811 151.281 147.957 150.813 147.88 150.161C147.803 149.51 147.589 148.923 147.237 148.401C146.9 147.861 146.466 147.461 145.935 147.201C145.419 146.924 144.875 146.819 144.303 146.886C143.572 146.973 142.956 147.279 142.454 147.806C141.967 148.314 141.618 148.976 141.408 149.79C141.196 150.588 141.146 151.464 141.259 152.418L141.287 152.656ZM157.429 145.723C155.762 145.936 154.55 146.24 153.791 146.636C153.046 147.014 152.599 147.461 152.451 147.978C152.303 148.495 152.281 149.199 152.386 150.088L151.647 150.176L151.121 145.719L160.726 144.584L155.635 156.52C157.254 156.312 158.427 156.013 159.154 155.621C159.881 155.229 160.311 154.783 160.446 154.284C160.594 153.767 160.616 153.064 160.511 152.174L161.25 152.087L161.776 156.544L152.338 157.658L157.429 145.723ZM167.336 156.273C166.574 156.364 165.873 156.293 165.233 156.063C164.61 155.83 164.092 155.472 163.681 154.989C163.283 154.489 163.045 153.904 162.966 153.237C162.859 152.331 163.005 151.589 163.404 151.01C163.801 150.416 164.303 149.962 164.911 149.648C165.532 149.317 166.345 148.971 167.35 148.611C168.062 148.366 168.617 148.155 169.015 147.979C169.411 147.787 169.731 147.556 169.972 147.286C170.228 146.998 170.333 146.656 170.286 146.258L170.244 145.901C170.161 145.202 169.933 144.705 169.56 144.411C169.185 144.101 168.632 143.989 167.902 144.075C167.282 144.148 166.782 144.417 166.402 144.88C166.02 145.328 165.861 145.83 165.927 146.387C165.993 146.943 165.895 147.413 165.635 147.799C165.372 148.168 164.995 148.382 164.502 148.44C164.073 148.491 163.675 148.393 163.307 148.146C162.94 147.899 162.73 147.554 162.677 147.109C162.602 146.473 162.776 145.897 163.198 145.38C163.634 144.845 164.235 144.403 164.999 144.055C165.764 143.707 166.591 143.481 167.481 143.376C169.133 143.18 170.426 143.35 171.359 143.884C172.29 144.402 172.84 145.24 173.009 146.396L173.69 152.164C173.773 152.863 173.865 153.368 173.966 153.678C174.067 153.988 174.252 154.127 174.523 154.096C174.904 154.05 175.201 153.629 175.412 152.83L176.132 152.987C175.955 153.814 175.673 154.427 175.286 154.827C174.912 155.21 174.439 155.435 173.867 155.502C173.088 155.594 172.465 155.434 171.998 155.022C171.544 154.592 171.235 153.88 171.069 152.884C170.824 153.815 170.391 154.583 169.77 155.189C169.165 155.792 168.353 156.153 167.336 156.273ZM165.633 152.898C165.708 153.534 165.977 154.041 166.441 154.422C166.919 154.784 167.499 154.925 168.183 154.844C169.152 154.73 169.859 154.236 170.303 153.361C170.746 152.471 170.897 151.43 170.756 150.239L170.461 147.736C170.278 147.967 170.039 148.189 169.742 148.401C169.443 148.597 169.051 148.829 168.567 149.096C167.902 149.464 167.354 149.803 166.923 150.111C166.508 150.418 166.167 150.805 165.9 151.271C165.647 151.72 165.558 152.262 165.633 152.898ZM176.312 143.952L176.154 143.632L174.819 143.79L174.718 142.932L175.719 142.813C176.339 142.74 176.811 142.378 177.137 141.727C177.463 141.077 177.624 140.252 177.618 139.254L178.453 139.155L178.841 142.445L180.557 142.242L180.659 143.1L178.943 143.303L179.902 151.43C179.985 152.129 180.077 152.634 180.178 152.944C180.279 153.255 180.465 153.394 180.735 153.362C181.116 153.317 181.413 152.895 181.625 152.097L182.344 152.253C182.168 153.08 181.886 153.693 181.498 154.093C181.124 154.476 180.651 154.701 180.079 154.768C179.285 154.862 178.653 154.695 178.183 154.267C177.728 153.822 177.423 153.084 177.27 152.055L176.312 143.952Z" fill="black"/>
<circle cx="232.999" cy="138.566" r="4" transform="rotate(-6.73598 232.999 138.566)" fill="black"/>
<path d="M286.053 141.14L286.268 141.115C286.522 141.085 286.693 140.968 286.782 140.764C286.869 140.544 286.885 140.204 286.831 139.743L285.333 127.063C285.279 126.603 285.184 126.284 285.051 126.106C284.915 125.913 284.72 125.831 284.466 125.861L284.251 125.886L284.167 125.171L290.412 124.434L290.602 124.411C292.719 124.193 294.31 124.36 295.374 124.911C296.454 125.46 297.076 126.434 297.241 127.832C297.348 128.738 297.222 129.51 296.862 130.148C296.503 130.787 295.888 131.311 295.018 131.72C296.242 131.849 297.181 132.229 297.835 132.861C298.49 133.493 298.886 134.388 299.023 135.548C299.207 137.106 298.868 138.33 298.006 139.221C297.143 140.096 295.705 140.677 293.693 140.963L286.138 141.855L286.053 141.14ZM293.153 140.277C294.392 140.131 295.26 139.706 295.757 139.003C296.252 138.284 296.419 137.241 296.258 135.875C296.104 134.572 295.705 133.652 295.062 133.116C294.419 132.58 293.477 132.385 292.238 132.531L288.734 132.945L289.649 140.691L293.153 140.277ZM291.293 131.894C292.532 131.747 293.407 131.378 293.917 130.786C294.425 130.179 294.612 129.303 294.477 128.159C294.338 126.983 293.95 126.158 293.314 125.686C292.693 125.195 291.754 125.024 290.499 125.173L287.853 125.485L288.647 132.206L291.293 131.894ZM306.943 139.785C305.751 139.925 304.638 139.775 303.603 139.333C302.568 138.892 301.715 138.219 301.044 137.315C300.374 136.412 299.968 135.364 299.827 134.172C299.687 132.981 299.838 131.875 300.282 130.856C300.723 129.821 301.397 128.976 302.302 128.322C303.206 127.651 304.253 127.245 305.445 127.105C306.526 126.977 307.536 127.075 308.477 127.399C309.417 127.723 310.177 128.221 310.756 128.894C311.349 129.549 311.695 130.298 311.794 131.14C311.888 131.934 311.692 132.594 311.206 133.118C310.735 133.625 310.022 133.935 309.069 134.048C307.909 134.185 305.776 134.203 302.671 134.102C302.972 135.42 303.544 136.448 304.388 137.186C305.249 137.922 306.322 138.215 307.609 138.063C308.483 137.959 309.268 137.649 309.965 137.132C310.675 136.597 311.26 135.891 311.72 135.015L312.276 135.216C311.788 136.546 311.084 137.604 310.161 138.389C309.239 139.175 308.166 139.64 306.943 139.785ZM302.588 133.605L306.711 133.118C307.712 133 308.389 132.799 308.743 132.515C309.112 132.23 309.258 131.762 309.181 131.11C309.104 130.459 308.89 129.872 308.538 129.349C308.2 128.809 307.766 128.409 307.236 128.15C306.72 127.872 306.176 127.768 305.604 127.835C304.873 127.921 304.257 128.228 303.755 128.754C303.267 129.263 302.919 129.925 302.709 130.739C302.497 131.537 302.447 132.413 302.56 133.366L302.588 133.605ZM313.798 137.863L314.012 137.838C314.282 137.806 314.452 137.673 314.521 137.44C314.604 137.188 314.607 136.737 314.53 136.085L313.75 129.483C313.672 128.816 313.563 128.377 313.426 128.168C313.304 127.957 313.108 127.867 312.838 127.899L312.624 127.924L312.539 127.209L315.478 126.306L316.074 126.236L316.29 128.071C316.543 127.349 316.932 126.755 317.458 126.29C317.983 125.825 318.65 125.545 319.461 125.449C320.033 125.382 320.588 125.445 321.127 125.639C321.681 125.832 322.143 126.131 322.514 126.539C322.882 126.93 323.097 127.388 323.159 127.913C323.214 128.373 323.102 128.789 322.823 129.161C322.543 129.516 322.18 129.72 321.735 129.772C321.275 129.827 320.859 129.715 320.487 129.436C320.13 129.14 319.924 128.762 319.87 128.301C319.804 127.745 319.652 127.344 319.414 127.098C319.175 126.853 318.818 126.758 318.341 126.814C317.594 126.902 317.091 127.348 316.832 128.152C316.572 128.956 316.498 129.827 316.608 130.765L317.2 135.77C317.277 136.421 317.377 136.861 317.5 137.088C317.638 137.297 317.842 137.386 318.112 137.354L318.326 137.328L318.411 138.043L313.882 138.578L313.798 137.863ZM324.342 136.618L324.556 136.593C324.826 136.561 324.996 136.428 325.065 136.194C325.148 135.943 325.151 135.491 325.074 134.84L323.731 123.471C323.652 122.803 323.544 122.365 323.407 122.156C323.285 121.945 323.089 121.855 322.819 121.887L322.605 121.912L322.52 121.197L325.459 120.294L326.055 120.224L327.4 131.617L330.807 127.928C330.995 127.744 331.08 127.581 331.063 127.438C331.048 127.311 330.951 127.242 330.773 127.231C330.446 127.189 330.163 127.045 329.924 126.799C329.7 126.536 329.566 126.221 329.523 125.856C329.474 125.443 329.59 125.059 329.87 124.703C330.166 124.346 330.553 124.139 331.03 124.083C331.474 124.03 331.875 124.144 332.23 124.425C332.601 124.703 332.815 125.08 332.871 125.557C332.911 125.891 332.868 126.21 332.743 126.515C332.633 126.818 332.423 127.149 332.111 127.508C331.46 128.277 330.764 129.061 330.02 129.857L333.779 133.86C334.347 134.437 334.771 134.822 335.051 135.015C335.348 135.205 335.631 135.285 335.901 135.253L336.02 135.239L336.105 135.954L335.795 135.99L332.649 136.362L328.241 131.783L327.516 132.594L327.744 134.524C327.82 135.176 327.921 135.615 328.044 135.842C328.182 136.052 328.386 136.14 328.656 136.108L328.87 136.083L328.955 136.798L324.426 137.333L324.342 136.618ZM340.717 135.796C339.954 135.886 339.253 135.815 338.614 135.585C337.99 135.352 337.473 134.995 337.061 134.511C336.664 134.011 336.426 133.427 336.347 132.759C336.24 131.853 336.386 131.111 336.785 130.532C337.182 129.938 337.684 129.484 338.291 129.17C338.913 128.839 339.726 128.493 340.731 128.133C341.443 127.888 341.998 127.677 342.396 127.501C342.792 127.31 343.111 127.079 343.353 126.808C343.609 126.52 343.714 126.178 343.667 125.78L343.625 125.423C343.542 124.724 343.314 124.227 342.941 123.933C342.566 123.623 342.013 123.511 341.282 123.597C340.663 123.67 340.163 123.939 339.782 124.403C339.4 124.85 339.242 125.352 339.308 125.909C339.373 126.465 339.276 126.935 339.015 127.321C338.753 127.69 338.375 127.904 337.883 127.962C337.454 128.013 337.056 127.915 336.688 127.668C336.321 127.421 336.111 127.076 336.058 126.631C335.983 125.995 336.157 125.419 336.579 124.902C337.015 124.367 337.615 123.925 338.38 123.577C339.144 123.229 339.972 123.003 340.861 122.898C342.514 122.702 343.807 122.872 344.74 123.406C345.671 123.925 346.221 124.762 346.39 125.918L347.071 131.686C347.154 132.385 347.245 132.89 347.347 133.2C347.448 133.51 347.633 133.649 347.903 133.618C348.285 133.573 348.581 133.151 348.793 132.352L349.512 132.509C349.336 133.336 349.054 133.949 348.666 134.349C348.293 134.732 347.82 134.957 347.248 135.024C346.469 135.116 345.846 134.956 345.379 134.544C344.925 134.114 344.615 133.402 344.449 132.406C344.205 133.337 343.772 134.106 343.151 134.711C342.545 135.314 341.734 135.675 340.717 135.796ZM339.014 132.42C339.089 133.056 339.358 133.564 339.822 133.944C340.3 134.306 340.88 134.447 341.563 134.366C342.533 134.252 343.24 133.758 343.684 132.883C344.127 131.993 344.278 130.952 344.137 129.761L343.841 127.258C343.659 127.489 343.42 127.711 343.122 127.923C342.823 128.119 342.432 128.351 341.948 128.618C341.282 128.986 340.734 129.325 340.304 129.633C339.889 129.94 339.548 130.327 339.281 130.793C339.027 131.242 338.938 131.784 339.014 132.42ZM350.387 133.542L350.602 133.516C350.872 133.484 351.041 133.352 351.11 133.118C351.194 132.866 351.197 132.415 351.12 131.764L349.777 120.395C349.698 119.727 349.59 119.289 349.452 119.08C349.331 118.868 349.135 118.779 348.865 118.811L348.65 118.836L348.566 118.121L351.504 117.218L352.1 117.148L352.874 123.702C353.177 122.99 353.663 122.401 354.333 121.935C355.017 121.451 355.796 121.158 356.67 121.055C357.877 120.912 358.845 121.128 359.574 121.702C360.302 122.277 360.764 123.318 360.958 124.826L361.631 130.522C361.708 131.174 361.808 131.613 361.931 131.84C362.069 132.049 362.28 132.137 362.566 132.103L362.757 132.081L362.842 132.796L361.912 132.906L359.243 133.221L358.313 133.331L358.229 132.616L358.443 132.59C358.713 132.558 358.883 132.426 358.952 132.192C359.035 131.94 359.038 131.489 358.961 130.837L358.3 125.236C358.181 124.235 357.9 123.487 357.455 122.992C357.023 122.479 356.426 122.268 355.664 122.358C354.806 122.459 354.141 122.835 353.67 123.487C353.2 124.139 353.019 124.926 353.128 125.847L353.789 131.448C353.866 132.1 353.966 132.539 354.09 132.766C354.227 132.975 354.431 133.064 354.701 133.032L354.916 133.007L355 133.722L350.472 134.257L350.387 133.542Z" fill="black"/>
<circle cx="413.743" cy="117.218" r="4" transform="rotate(-6.73598 413.743 117.218)" fill="black"/>
<path d="M466.991 119.77L467.205 119.744C467.475 119.712 467.645 119.58 467.714 119.346C467.797 119.094 467.8 118.643 467.723 117.991L466.341 106.289C466.274 105.717 465.993 105.46 465.501 105.518C465.31 105.541 465.085 105.615 464.827 105.743L464.745 105.051L468.108 103.446L468.704 103.376L470.393 117.676C470.47 118.328 470.57 118.767 470.693 118.994C470.831 119.203 471.035 119.292 471.305 119.26L471.519 119.235L471.604 119.95L467.075 120.485L466.991 119.77ZM480.813 119.249C479.367 119.42 478.011 119.193 476.745 118.569C475.479 117.945 474.427 117.014 473.588 115.776C472.763 114.52 472.253 113.074 472.06 111.438C471.867 109.801 472.026 108.284 472.538 106.886C473.063 105.471 473.869 104.312 474.955 103.411C476.04 102.509 477.314 101.972 478.776 101.799C480.222 101.628 481.578 101.855 482.844 102.479C484.11 103.103 485.155 104.042 485.98 105.298C486.819 106.537 487.335 107.974 487.529 109.611C487.722 111.247 487.556 112.773 487.03 114.189C486.519 115.586 485.72 116.736 484.634 117.637C483.548 118.539 482.275 119.076 480.813 119.249ZM475.087 111.08C475.412 113.829 476.039 115.801 476.97 116.996C477.899 118.175 479.165 118.67 480.77 118.48C482.343 118.295 483.435 117.513 484.046 116.136C484.673 114.757 484.824 112.701 484.502 109.968C484.177 107.219 483.55 105.255 482.622 104.076C481.691 102.881 480.423 102.378 478.818 102.568C477.245 102.753 476.145 103.536 475.519 104.915C474.908 106.292 474.764 108.347 475.087 111.08ZM498.176 117.198C496.73 117.369 495.375 117.142 494.109 116.518C492.843 115.895 491.79 114.964 490.951 113.725C490.126 112.47 489.617 111.023 489.424 109.387C489.23 107.75 489.39 106.233 489.901 104.835C490.427 103.42 491.232 102.261 492.318 101.36C493.404 100.458 494.678 99.9211 496.14 99.7484C497.586 99.5776 498.941 99.8042 500.207 100.428C501.473 101.052 502.519 101.992 503.344 103.248C504.183 104.486 504.699 105.923 504.892 107.56C505.086 109.196 504.919 110.722 504.394 112.138C503.882 113.535 503.084 114.685 501.998 115.587C500.912 116.488 499.638 117.025 498.176 117.198ZM492.451 109.029C492.775 111.778 493.403 113.75 494.334 114.945C495.262 116.124 496.529 116.619 498.134 116.43C499.707 116.244 500.799 115.462 501.41 114.085C502.036 112.706 502.188 110.65 501.865 107.917C501.541 105.168 500.914 103.204 499.985 102.025C499.055 100.83 497.787 100.327 496.182 100.517C494.609 100.703 493.509 101.485 492.883 102.864C492.272 104.241 492.128 106.296 492.451 109.029ZM509.429 97.9855C510.605 97.8466 511.55 98.2103 512.264 99.0764C512.977 99.9267 513.433 101.194 513.632 102.878C513.831 104.563 513.693 105.916 513.217 106.939C512.756 107.944 511.914 108.519 510.69 108.663C509.943 108.751 509.282 108.612 508.707 108.245C508.132 107.878 507.663 107.313 507.299 106.55C506.949 105.77 506.708 104.824 506.577 103.712C506.378 102.027 506.502 100.691 506.949 99.7042C507.395 98.701 508.221 98.1281 509.429 97.9855ZM509.603 99.4632C509 99.5345 508.593 99.9128 508.384 100.598C508.189 101.266 508.167 102.235 508.317 103.506C508.467 104.777 508.716 105.723 509.063 106.342C509.426 106.96 509.909 107.233 510.513 107.162C511.132 107.089 511.556 106.716 511.783 106.045C512.007 105.358 512.044 104.371 511.892 103.084C511.742 101.813 511.478 100.877 511.101 100.277C510.722 99.6613 510.223 99.39 509.603 99.4632ZM520.349 96.9374L512.921 115.07L511.086 115.287L518.514 97.1541L520.349 96.9374ZM520.65 103.572C521.428 103.48 522.105 103.618 522.68 103.985C523.253 104.336 523.722 104.893 524.086 105.655C524.464 106.4 524.719 107.337 524.853 108.465C525.051 110.149 524.913 111.503 524.438 112.525C523.977 113.53 523.134 114.105 521.911 114.25C521.164 114.338 520.503 114.198 519.928 113.831C519.353 113.464 518.884 112.899 518.52 112.137C518.17 111.357 517.929 110.41 517.798 109.298C517.599 107.614 517.723 106.278 518.17 105.291C518.616 104.287 519.442 103.715 520.65 103.572ZM520.827 105.073C520.223 105.145 519.816 105.515 519.605 106.185C519.41 106.852 519.387 107.821 519.538 109.092C519.69 110.38 519.939 111.333 520.286 111.952C520.647 112.554 521.13 112.819 521.733 112.748C522.353 112.675 522.776 112.303 523.003 111.632C523.23 110.96 523.267 109.973 523.113 108.67C522.963 107.399 522.699 106.464 522.322 105.864C521.945 105.264 521.447 105 520.827 105.073ZM532.267 112.06L532.482 112.034C532.752 112.003 532.922 111.87 532.991 111.636C533.074 111.385 533.077 110.933 533 110.282L531.657 98.9127C531.578 98.2453 531.47 97.807 531.333 97.5976C531.211 97.3864 531.015 97.2968 530.745 97.3287L530.531 97.354L530.446 96.639L533.384 95.7361L533.98 95.6657L534.754 102.22C535.057 101.508 535.543 100.919 536.213 100.453C536.897 99.9693 537.676 99.6759 538.55 99.5727C539.758 99.4301 540.726 99.646 541.454 100.221C542.183 100.795 542.644 101.836 542.838 103.344L543.511 109.04C543.588 109.692 543.688 110.131 543.812 110.358C543.949 110.567 544.161 110.655 544.447 110.621L544.637 110.599L544.722 111.314L543.792 111.424L541.123 111.739L540.193 111.849L540.109 111.134L540.323 111.108C540.594 111.076 540.763 110.944 540.832 110.71C540.915 110.458 540.918 110.007 540.841 109.355L540.18 103.754C540.062 102.753 539.78 102.005 539.335 101.51C538.904 100.997 538.307 100.786 537.544 100.876C536.686 100.977 536.022 101.354 535.551 102.005C535.08 102.657 534.899 103.444 535.008 104.365L535.669 109.966C535.746 110.618 535.847 111.057 535.97 111.284C536.108 111.493 536.311 111.582 536.581 111.55L536.796 111.525L536.88 112.24L532.352 112.775L532.267 112.06ZM549.807 111.1C549.044 111.19 548.343 111.12 547.704 110.889C547.08 110.657 546.562 110.299 546.151 109.816C545.753 109.315 545.515 108.731 545.436 108.064C545.33 107.158 545.475 106.416 545.874 105.837C546.271 105.242 546.774 104.788 547.381 104.475C548.002 104.144 548.815 103.798 549.82 103.437C550.532 103.192 551.087 102.982 551.486 102.806C551.882 102.614 552.201 102.383 552.443 102.113C552.699 101.825 552.803 101.482 552.756 101.085L552.714 100.727C552.632 100.028 552.404 99.5315 552.031 99.2372C551.656 98.927 551.103 98.8151 550.372 98.9014C549.752 98.9746 549.252 99.2431 548.872 99.7069C548.49 100.155 548.332 100.657 548.397 101.213C548.463 101.769 548.366 102.24 548.105 102.625C547.842 102.994 547.465 103.208 546.972 103.266C546.543 103.317 546.145 103.219 545.778 102.972C545.41 102.726 545.2 102.38 545.148 101.935C545.073 101.3 545.246 100.723 545.668 100.206C546.105 99.6713 546.705 99.2298 547.47 98.8817C548.234 98.5337 549.061 98.3071 549.951 98.202C551.603 98.0068 552.896 98.1763 553.829 98.7106C554.761 99.2289 555.311 100.066 555.479 101.222L556.161 106.99C556.243 107.689 556.335 108.194 556.436 108.504C556.537 108.815 556.723 108.954 556.993 108.922C557.374 108.877 557.671 108.455 557.883 107.657L558.602 107.814C558.426 108.64 558.144 109.253 557.756 109.654C557.382 110.036 556.909 110.261 556.337 110.329C555.559 110.421 554.936 110.261 554.468 109.849C554.015 109.419 553.705 108.706 553.539 107.711C553.295 108.642 552.862 109.41 552.24 110.015C551.635 110.618 550.824 110.98 549.807 111.1ZM548.103 107.724C548.178 108.36 548.448 108.868 548.911 109.248C549.389 109.611 549.97 109.752 550.653 109.671C551.622 109.556 552.329 109.062 552.774 108.188C553.216 107.298 553.367 106.257 553.227 105.065L552.931 102.563C552.749 102.794 552.509 103.015 552.212 103.227C551.913 103.424 551.521 103.655 551.037 103.922C550.372 104.291 549.824 104.629 549.393 104.938C548.978 105.245 548.637 105.631 548.37 106.098C548.117 106.547 548.028 107.089 548.103 107.724ZM559.561 109.561L559.477 108.846L559.691 108.821C559.961 108.789 560.131 108.656 560.2 108.422C560.283 108.171 560.286 107.719 560.209 107.068L558.866 95.699C558.788 95.0316 558.679 94.5933 558.542 94.384C558.42 94.1728 558.224 94.0831 557.954 94.115L557.74 94.1404L557.655 93.4253L560.594 92.5224L561.19 92.4521L562.879 106.753C562.956 107.404 563.056 107.843 563.179 108.07C563.317 108.28 563.529 108.368 563.815 108.334L564.005 108.311L564.09 109.026L563.16 109.136L560.491 109.451L559.561 109.561ZM569.335 108.793C568.572 108.884 567.871 108.813 567.232 108.583C566.608 108.35 566.091 107.992 565.679 107.509C565.282 107.009 565.044 106.424 564.965 105.757C564.858 104.851 565.004 104.109 565.403 103.53C565.8 102.936 566.302 102.482 566.909 102.168C567.531 101.837 568.344 101.491 569.348 101.131C570.061 100.886 570.616 100.675 571.014 100.499C571.41 100.307 571.729 100.076 571.971 99.8062C572.227 99.5182 572.332 99.1756 572.285 98.7783L572.243 98.4208C572.16 97.7217 571.932 97.225 571.559 96.9307C571.184 96.6205 570.631 96.5086 569.9 96.595C569.281 96.6681 568.781 96.9366 568.4 97.4004C568.018 97.8484 567.86 98.3504 567.926 98.9065C567.991 99.4626 567.894 99.9333 567.633 100.319C567.371 100.688 566.993 100.902 566.501 100.96C566.072 101.011 565.673 100.913 565.306 100.666C564.939 100.419 564.729 100.074 564.676 99.6287C564.601 98.9931 564.775 98.4167 565.197 97.8997C565.633 97.3648 566.233 96.9233 566.998 96.5753C567.762 96.2272 568.589 96.0006 569.479 95.8955C571.132 95.7003 572.425 95.8699 573.358 96.4041C574.289 96.9224 574.839 97.7597 575.008 98.9159L575.689 104.684C575.772 105.383 575.863 105.888 575.964 106.198C576.066 106.508 576.251 106.647 576.521 106.616C576.903 106.57 577.199 106.149 577.411 105.35L578.13 105.507C577.954 106.334 577.672 106.947 577.284 107.347C576.911 107.73 576.438 107.955 575.866 108.022C575.087 108.114 574.464 107.954 573.997 107.542C573.543 107.112 573.233 106.4 573.067 105.404C572.823 106.335 572.39 107.103 571.769 107.709C571.163 108.312 570.352 108.673 569.335 108.793ZM567.631 105.418C567.706 106.054 567.976 106.561 568.44 106.942C568.918 107.304 569.498 107.445 570.181 107.364C571.151 107.25 571.857 106.756 572.302 105.881C572.745 104.991 572.896 103.95 572.755 102.759L572.459 100.256C572.277 100.487 572.037 100.709 571.74 100.921C571.441 101.117 571.05 101.349 570.566 101.616C569.9 101.984 569.352 102.323 568.921 102.631C568.507 102.938 568.166 103.325 567.898 103.791C567.645 104.24 567.556 104.782 567.631 105.418ZM579.09 107.255L579.005 106.54L579.22 106.514C579.49 106.482 579.659 106.35 579.728 106.116C579.811 105.864 579.814 105.413 579.738 104.761L578.395 93.3925C578.316 92.7251 578.208 92.2868 578.07 92.0775C577.949 91.8663 577.753 91.7766 577.483 91.8085L577.268 91.8339L577.184 91.1188L580.122 90.216L580.718 90.1456L582.407 104.446C582.484 105.098 582.584 105.537 582.708 105.764C582.845 105.973 583.057 106.061 583.343 106.027L583.534 106.005L583.618 106.72L582.689 106.83L580.019 107.145L579.09 107.255Z" fill="black"/>
</svg>
