<svg width="353" height="165" viewBox="0 0 353 165" fill="none" xmlns="http://www.w3.org/2000/svg">
<rect width="962.398" height="50" transform="translate(-194.275 112.938) rotate(-6.73598)" fill="#FFAA00"/>
<path d="M-24.4283 125.503L-24.2495 125.482C-24.0377 125.457 -23.8948 125.36 -23.8209 125.19C-23.7485 125.007 -23.735 124.723 -23.7804 124.339L-24.9908 114.091C-25.0549 113.548 -25.1443 113.189 -25.2589 113.015C-25.3618 112.825 -25.5258 112.744 -25.7509 112.771L-25.9297 112.792L-26 112.196L-22.2263 111.75L-22.1559 112.346L-22.3148 112.365C-22.5531 112.393 -22.7069 112.512 -22.7761 112.721C-22.8337 112.916 -22.8304 113.285 -22.7663 113.828L-21.4315 125.129L-20.637 125.035C-19.1805 124.863 -18.1286 124.618 -17.4815 124.3C-16.8211 123.981 -16.429 123.605 -16.3054 123.175C-16.17 122.729 -16.147 122.129 -16.2361 121.374L-15.6204 121.301L-15.1817 125.015L-24.3579 126.099L-24.4283 125.503ZM-9.03739 124.612C-10.0305 124.729 -10.9583 124.604 -11.8207 124.236C-12.6832 123.868 -13.3938 123.307 -13.9527 122.554C-14.5115 121.801 -14.8496 120.928 -14.9669 119.935C-15.0842 118.942 -14.958 118.021 -14.5884 117.172C-14.2204 116.309 -13.6591 115.605 -12.9045 115.06C-12.1515 114.501 -11.2785 114.163 -10.2854 114.045C-9.38499 113.939 -8.54292 114.021 -7.75918 114.291C-6.97544 114.561 -6.34236 114.976 -5.85994 115.537C-5.36584 116.082 -5.07735 116.706 -4.99446 117.408C-4.91626 118.07 -5.07959 118.62 -5.48444 119.057C-5.87761 119.479 -6.47144 119.737 -7.26592 119.831C-8.23253 119.945 -10.0097 119.961 -12.5974 119.877C-12.3468 120.975 -11.8697 121.832 -11.1661 122.447C-10.4491 123.06 -9.55442 123.304 -8.48188 123.177C-7.75361 123.091 -7.09941 122.832 -6.5193 122.401C-5.92751 121.956 -5.43977 121.368 -5.05608 120.638L-4.59331 120.804C-4.99942 121.913 -5.58673 122.795 -6.35524 123.449C-7.12376 124.104 -8.01781 124.492 -9.03739 124.612ZM-12.6665 119.462L-9.23037 119.056C-8.39617 118.958 -7.8319 118.79 -7.53757 118.554C-7.23 118.317 -7.10827 117.926 -7.17239 117.383C-7.23651 116.84 -7.41511 116.351 -7.7082 115.916C-7.9896 115.466 -8.35118 115.133 -8.79294 114.916C-9.22302 114.685 -9.6764 114.598 -10.1531 114.654C-10.7622 114.726 -11.2758 114.981 -11.6939 115.42C-12.1003 115.844 -12.391 116.395 -12.5659 117.074C-12.7424 117.739 -12.7838 118.469 -12.6899 119.263L-12.6665 119.462ZM0.784771 113.684C-0.604001 113.862 -1.61456 114.116 -2.24691 114.445C-2.86759 114.76 -3.23975 115.133 -3.3634 115.564C-3.48706 115.995 -3.5051 116.581 -3.41752 117.322L-4.03324 117.395L-4.47192 113.681L3.53245 112.736L-0.710197 122.682C0.638851 122.509 1.61631 122.259 2.22218 121.933C2.82804 121.606 3.18697 121.235 3.29894 120.819C3.4226 120.388 3.44064 119.802 3.35306 119.06L3.96878 118.988L4.40746 122.702L-3.45787 123.631L0.784771 113.684ZM9.04117 122.477C8.40559 122.552 7.82136 122.493 7.28847 122.301C6.76883 122.107 6.33755 121.809 5.99463 121.407C5.66339 120.989 5.46493 120.503 5.39924 119.946C5.3101 119.192 5.43172 118.573 5.76411 118.091C6.09493 117.595 6.51344 117.217 7.01964 116.956C7.53751 116.68 8.21505 116.392 9.05228 116.091C9.64574 115.887 10.1084 115.712 10.4401 115.565C10.7703 115.405 11.0362 115.213 11.2379 114.987C11.4512 114.747 11.5383 114.462 11.4992 114.131L11.464 113.833C11.3952 113.25 11.2053 112.836 10.8944 112.591C10.582 112.333 10.1212 112.239 9.51208 112.311C8.99567 112.372 8.57903 112.596 8.26218 112.983C7.94377 113.356 7.81193 113.774 7.86666 114.238C7.9214 114.701 7.84018 115.093 7.623 115.414C7.40426 115.722 7.08965 115.9 6.67917 115.949C6.32165 115.991 5.98979 115.909 5.68357 115.704C5.37735 115.498 5.20235 115.21 5.15856 114.839C5.096 114.31 5.24066 113.829 5.59255 113.399C5.95611 112.953 6.45641 112.585 7.09346 112.295C7.7305 112.005 8.41978 111.816 9.16129 111.728C10.5384 111.566 11.6157 111.707 12.3933 112.152C13.1693 112.584 13.6277 113.282 13.7683 114.245L14.336 119.052C14.4048 119.635 14.4814 120.055 14.5656 120.314C14.6499 120.572 14.8045 120.688 15.0296 120.662C15.3474 120.624 15.5946 120.273 15.7711 119.608L16.3705 119.738C16.2236 120.427 15.9886 120.938 15.6655 121.271C15.3541 121.59 14.96 121.778 14.4833 121.834C13.8345 121.911 13.3153 121.777 12.9257 121.434C12.5477 121.076 12.2896 120.482 12.1514 119.652C11.9476 120.428 11.5869 121.068 11.0691 121.573C10.5646 122.075 9.88861 122.377 9.04117 122.477ZM7.62144 119.664C7.68399 120.194 7.90852 120.617 8.29502 120.934C8.6932 121.236 9.17697 121.353 9.74635 121.286C10.5541 121.19 11.1431 120.778 11.5136 120.05C11.8825 119.308 12.0083 118.441 11.891 117.448L11.6447 115.362C11.4928 115.555 11.2931 115.739 11.0455 115.916C10.7963 116.08 10.47 116.273 10.0666 116.495C9.51218 116.802 9.05546 117.085 8.69648 117.342C8.35075 117.597 8.06658 117.92 7.84398 118.308C7.63306 118.682 7.55888 119.134 7.62144 119.664ZM16.5212 112.208L16.3891 111.942L15.2768 112.074L15.1923 111.358L16.0265 111.26C16.5429 111.199 16.937 110.897 17.2086 110.355C17.4802 109.813 17.6138 109.126 17.6096 108.294L18.3047 108.212L18.6285 110.953L20.0585 110.784L20.143 111.499L18.7129 111.668L19.5129 118.441C19.5817 119.023 19.6582 119.444 19.7424 119.702C19.8267 119.961 19.9814 120.077 20.2065 120.05C20.5242 120.013 20.7714 119.661 20.9479 118.996L21.5474 119.127C21.4005 119.815 21.1655 120.326 20.8424 120.66C20.5309 120.979 20.1369 121.166 19.6602 121.223C18.9981 121.301 18.4715 121.162 18.0803 120.805C17.7008 120.434 17.4469 119.819 17.3188 118.962L16.5212 112.208Z" fill="black"/>
<circle cx="61.1022" cy="107.95" r="3" transform="rotate(-6.73598 61.1022 107.95)" fill="black"/>
<path d="M102.51 110.511L102.689 110.49C102.9 110.465 103.043 110.367 103.117 110.197C103.19 110.014 103.203 109.731 103.158 109.347L101.91 98.7802C101.864 98.3962 101.786 98.1303 101.675 97.9823C101.562 97.8211 101.399 97.753 101.187 97.7781L101.008 97.7992L100.938 97.2033L106.142 96.5887L106.301 96.5699C108.065 96.3884 109.39 96.5272 110.277 96.9864C111.177 97.444 111.696 98.2554 111.833 99.4207C111.923 100.175 111.817 100.819 111.518 101.351C111.218 101.883 110.706 102.32 109.981 102.66C111 102.768 111.783 103.085 112.328 103.612C112.874 104.138 113.204 104.884 113.318 105.851C113.471 107.149 113.189 108.169 112.471 108.911C111.752 109.641 110.553 110.125 108.876 110.363L102.58 111.107L102.51 110.511ZM108.426 109.792C109.459 109.67 110.183 109.316 110.597 108.73C111.009 108.131 111.148 107.262 111.014 106.123C110.886 105.037 110.553 104.271 110.017 103.824C109.481 103.377 108.697 103.215 107.664 103.337L104.744 103.682L105.507 110.137L108.426 109.792ZM106.876 102.805C107.909 102.683 108.638 102.376 109.063 101.883C109.487 101.376 109.642 100.646 109.529 99.6928C109.414 98.7129 109.091 98.0261 108.561 97.6322C108.043 97.2234 107.261 97.0809 106.215 97.2044L104.01 97.4648L104.672 103.066L106.876 102.805ZM119.918 109.381C118.925 109.498 117.997 109.373 117.135 109.005C116.272 108.637 115.562 108.076 115.003 107.323C114.444 106.57 114.106 105.697 113.988 104.704C113.871 103.711 113.997 102.79 114.367 101.941C114.735 101.078 115.296 100.374 116.051 99.8288C116.804 99.27 117.677 98.9319 118.67 98.8146C119.57 98.7082 120.412 98.79 121.196 99.06C121.98 99.3299 122.613 99.7452 123.095 100.306C123.59 100.852 123.878 101.475 123.961 102.177C124.039 102.839 123.876 103.389 123.471 103.826C123.078 104.248 122.484 104.507 121.689 104.6C120.723 104.715 118.946 104.73 116.358 104.646C116.609 105.744 117.086 106.601 117.789 107.216C118.506 107.829 119.401 108.073 120.473 107.946C121.202 107.86 121.856 107.602 122.436 107.171C123.028 106.725 123.516 106.137 123.899 105.407L124.362 105.574C123.956 106.682 123.369 107.564 122.6 108.219C121.832 108.873 120.938 109.261 119.918 109.381ZM116.289 104.231L119.725 103.825C120.559 103.727 121.123 103.56 121.418 103.323C121.725 103.086 121.847 102.695 121.783 102.152C121.719 101.61 121.54 101.121 121.247 100.685C120.966 100.235 120.604 99.9019 120.162 99.6855C119.732 99.4544 119.279 99.367 118.802 99.4233C118.193 99.4952 117.68 99.7506 117.261 100.189C116.855 100.613 116.564 101.164 116.389 101.843C116.213 102.508 116.172 103.238 116.265 104.033L116.289 104.231ZM125.63 107.78L125.809 107.759C126.034 107.732 126.176 107.622 126.233 107.427C126.302 107.217 126.305 106.841 126.241 106.298L125.591 100.796C125.525 100.24 125.435 99.8751 125.321 99.7006C125.219 99.5246 125.056 99.4499 124.831 99.4765L124.652 99.4976L124.582 98.9018L127.03 98.1494L127.527 98.0907L127.708 99.6201C127.918 99.0179 128.243 98.5231 128.68 98.1358C129.118 97.7484 129.674 97.5149 130.35 97.4351C130.826 97.3788 131.289 97.4316 131.738 97.5934C132.2 97.7536 132.585 98.0035 132.894 98.343C133.201 98.6692 133.38 99.0508 133.432 99.4878C133.477 99.8718 133.384 100.218 133.152 100.528C132.918 100.824 132.616 100.994 132.245 101.038C131.861 101.083 131.515 100.99 131.205 100.758C130.908 100.511 130.736 100.196 130.691 99.8115C130.636 99.3481 130.509 99.014 130.31 98.8092C130.112 98.6044 129.814 98.5255 129.417 98.5724C128.794 98.6459 128.375 99.0177 128.159 99.6876C127.942 100.358 127.88 101.083 127.973 101.864L128.465 106.035C128.529 106.578 128.613 106.944 128.716 107.134C128.83 107.308 129 107.382 129.225 107.355L129.404 107.334L129.475 107.93L125.701 108.376L125.63 107.78ZM134.417 106.742L134.596 106.721C134.821 106.695 134.962 106.584 135.02 106.389C135.089 106.18 135.091 105.803 135.027 105.26L133.908 95.7863C133.843 95.2302 133.753 94.8649 133.638 94.6905C133.537 94.5145 133.373 94.4398 133.148 94.4663L132.97 94.4875L132.899 93.8916L135.348 93.1392L135.844 93.0805L136.966 102.575L139.805 99.5003C139.961 99.3476 140.032 99.2116 140.018 99.0925C140.006 98.9865 139.925 98.9289 139.776 98.9196C139.504 98.8847 139.268 98.7649 139.069 98.5601C138.882 98.3405 138.771 98.0785 138.735 97.7739C138.694 97.4296 138.791 97.1094 139.024 96.8133C139.271 96.5157 139.593 96.3434 139.99 96.2965C140.361 96.2527 140.694 96.3476 140.99 96.5811C141.3 96.8131 141.478 97.1277 141.525 97.5249C141.558 97.803 141.522 98.069 141.418 98.323C141.327 98.5754 141.151 98.8513 140.891 99.1505C140.349 99.7918 139.769 100.444 139.149 101.108L142.282 104.444C142.755 104.925 143.108 105.246 143.342 105.406C143.589 105.565 143.825 105.631 144.05 105.605L144.149 105.593L144.22 106.189L143.961 106.219L141.34 106.529L137.667 102.713L137.062 103.389L137.252 104.998C137.316 105.541 137.4 105.907 137.502 106.096C137.617 106.27 137.787 106.344 138.012 106.318L138.191 106.297L138.261 106.892L134.487 107.338L134.417 106.742ZM148.063 106.057C147.428 106.132 146.843 106.073 146.311 105.881C145.791 105.688 145.36 105.389 145.017 104.987C144.685 104.57 144.487 104.083 144.421 103.527C144.332 102.772 144.454 102.153 144.786 101.671C145.117 101.175 145.536 100.797 146.042 100.536C146.56 100.26 147.237 99.9718 148.074 99.6715C148.668 99.4672 149.13 99.2917 149.462 99.1451C149.792 98.9853 150.058 98.7928 150.26 98.5676C150.473 98.3275 150.56 98.042 150.521 97.711L150.486 97.4131C150.417 96.8304 150.227 96.4165 149.917 96.1713C149.604 95.9128 149.143 95.8196 148.534 95.8915C148.018 95.9525 147.601 96.1762 147.284 96.5627C146.966 96.936 146.834 97.3544 146.889 97.8178C146.944 98.2812 146.862 98.6735 146.645 98.9945C146.426 99.3023 146.112 99.4804 145.701 99.5289C145.344 99.5711 145.012 99.4895 144.706 99.284C144.399 99.0785 144.224 98.7904 144.181 98.4196C144.118 97.89 144.263 97.4097 144.615 96.9788C144.978 96.533 145.479 96.1651 146.116 95.8751C146.753 95.585 147.442 95.3962 148.183 95.3086C149.56 95.146 150.638 95.2873 151.415 95.7325C152.191 96.1644 152.65 96.8621 152.79 97.8256L153.358 102.632C153.427 103.215 153.503 103.635 153.588 103.894C153.672 104.153 153.827 104.269 154.052 104.242C154.37 104.204 154.617 103.853 154.793 103.188L155.393 103.318C155.246 104.007 155.011 104.518 154.688 104.852C154.376 105.17 153.982 105.358 153.505 105.414C152.857 105.491 152.337 105.357 151.948 105.014C151.57 104.656 151.312 104.062 151.173 103.233C150.97 104.009 150.609 104.649 150.091 105.153C149.587 105.655 148.911 105.957 148.063 106.057ZM146.644 103.244C146.706 103.774 146.931 104.197 147.317 104.514C147.715 104.816 148.199 104.933 148.768 104.866C149.576 104.771 150.165 104.359 150.536 103.63C150.905 102.888 151.03 102.021 150.913 101.028L150.667 98.9424C150.515 99.1349 150.315 99.3196 150.068 99.4965C149.818 99.6602 149.492 99.8532 149.089 100.075C148.534 100.382 148.078 100.665 147.719 100.922C147.373 101.178 147.089 101.5 146.866 101.889C146.655 102.263 146.581 102.714 146.644 103.244ZM156.122 104.179L156.3 104.158C156.525 104.131 156.667 104.02 156.724 103.826C156.794 103.616 156.796 103.24 156.732 102.697L155.613 93.2228C155.547 92.6666 155.457 92.3014 155.343 92.1269C155.241 91.9509 155.078 91.8762 154.853 91.9028L154.674 91.9239L154.604 91.3281L157.052 90.5757L157.549 90.517L158.194 95.9791C158.446 95.3854 158.851 94.8945 159.41 94.5063C159.98 94.1033 160.629 93.8588 161.357 93.7728C162.363 93.654 163.17 93.8339 163.777 94.3127C164.384 94.7915 164.769 95.659 164.93 96.9154L165.491 101.662C165.555 102.205 165.639 102.571 165.742 102.761C165.856 102.935 166.033 103.008 166.271 102.98L166.43 102.961L166.5 103.557L165.726 103.649L163.501 103.911L162.727 104.003L162.656 103.407L162.835 103.386C163.06 103.359 163.201 103.249 163.259 103.054C163.328 102.844 163.331 102.468 163.267 101.925L162.715 97.2576C162.617 96.4234 162.382 95.7999 162.011 95.3873C161.652 94.9598 161.154 94.7836 160.519 94.8587C159.804 94.9431 159.25 95.2569 158.858 95.8C158.465 96.3431 158.315 96.9986 158.405 97.7666L158.957 102.434C159.021 102.977 159.104 103.343 159.207 103.532C159.322 103.707 159.491 103.781 159.717 103.754L159.895 103.733L159.966 104.329L156.192 104.775L156.122 104.179Z" fill="black"/>
<circle cx="206.094" cy="90.8247" r="3" transform="rotate(-6.73598 206.094 90.8247)" fill="black"/>
<path d="M247.995 93.3276L248.174 93.3065C248.399 93.2799 248.54 93.1692 248.598 92.9745C248.667 92.7649 248.669 92.3887 248.605 91.8458L247.453 82.0936C247.397 81.6169 247.164 81.4028 246.753 81.4513C246.594 81.47 246.407 81.5324 246.191 81.6385L246.123 81.0625L248.926 79.7245L249.422 79.6659L250.83 91.5831C250.894 92.1259 250.977 92.492 251.08 92.6812C251.195 92.8557 251.365 92.9296 251.59 92.903L251.769 92.8819L251.839 93.4778L248.065 93.9235L247.995 93.3276ZM259.513 92.8936C258.308 93.0359 257.178 92.8471 256.123 92.3273C255.068 91.8074 254.191 91.0316 253.492 89.9998C252.805 88.9533 252.38 87.748 252.219 86.3842C252.058 85.0203 252.191 83.7561 252.617 82.5913C253.055 81.4118 253.726 80.4464 254.631 79.6951C255.536 78.9438 256.598 78.4962 257.816 78.3523C259.021 78.21 260.151 78.3988 261.206 78.9186C262.26 79.4385 263.132 80.2217 263.819 81.2683C264.518 82.3 264.949 83.4979 265.11 84.8617C265.271 86.2256 265.132 87.4972 264.694 88.6768C264.268 89.8415 263.602 90.7995 262.698 91.5508C261.793 92.3021 260.731 92.7497 259.513 92.8936ZM254.742 86.0863C255.012 88.377 255.535 90.0203 256.311 91.0162C257.085 91.9989 258.14 92.4113 259.478 92.2533C260.789 92.0985 261.699 91.4473 262.207 90.2997C262.73 89.1505 262.856 87.4371 262.587 85.1596C262.317 82.8689 261.794 81.2322 261.02 80.2495C260.245 79.2536 259.188 78.8346 257.851 78.9926C256.54 79.1474 255.624 79.7994 255.102 80.9486C254.593 82.0962 254.473 83.8088 254.742 86.0863ZM273.983 91.1846C272.778 91.3269 271.648 91.1381 270.593 90.6183C269.538 90.0984 268.661 89.3226 267.962 88.2908C267.274 87.2442 266.85 86.039 266.689 84.6752C266.528 83.3113 266.66 82.047 267.087 80.8823C267.525 79.7028 268.196 78.7374 269.101 77.9861C270.006 77.2348 271.067 76.7872 272.285 76.6433C273.49 76.501 274.62 76.6897 275.675 77.2096C276.73 77.7294 277.601 78.5127 278.289 79.5592C278.988 80.591 279.418 81.7888 279.579 83.1527C279.74 84.5165 279.602 85.7882 279.164 86.9678C278.738 88.1325 278.072 89.0905 277.167 89.8418C276.262 90.5931 275.201 91.0407 273.983 91.1846ZM269.211 84.3772C269.482 86.668 270.005 88.3113 270.78 89.3072C271.554 90.2899 272.61 90.7023 273.947 90.5443C275.258 90.3895 276.168 89.7383 276.677 88.5906C277.199 87.4415 277.326 85.7281 277.057 83.4506C276.786 81.1599 276.264 79.5232 275.49 78.5405C274.715 77.5446 273.658 77.1256 272.321 77.2836C271.01 77.4384 270.093 78.0904 269.571 79.2396C269.062 80.3872 268.942 82.0997 269.211 84.3772ZM283.36 75.1742C284.34 75.0584 285.127 75.3615 285.723 76.0833C286.317 76.7919 286.697 77.8479 286.862 79.2515C287.028 80.6551 286.913 81.783 286.517 82.6354C286.132 83.4729 285.43 83.9519 284.411 84.0723C283.789 84.1458 283.238 84.0296 282.759 83.7237C282.279 83.4178 281.888 82.9471 281.585 82.3117C281.293 81.6614 281.093 80.8728 280.983 79.9459C280.817 78.5423 280.921 77.4292 281.294 76.6064C281.665 75.7705 282.354 75.293 283.36 75.1742ZM283.505 76.4056C283.002 76.465 282.663 76.7803 282.489 77.3513C282.327 77.9076 282.308 78.7153 282.433 79.7746C282.558 80.8339 282.765 81.6218 283.055 82.1381C283.357 82.6528 283.76 82.8805 284.263 82.821C284.779 82.76 285.132 82.4499 285.321 81.8905C285.509 81.3179 285.539 80.4953 285.412 79.4228C285.287 78.3635 285.068 77.5838 284.754 77.0839C284.438 76.5707 284.022 76.3446 283.505 76.4056ZM292.46 74.3007L286.27 89.4111L284.741 89.5918L290.931 74.4814L292.46 74.3007ZM292.711 79.8295C293.359 79.7529 293.923 79.8675 294.403 80.1735C294.88 80.4661 295.271 80.9302 295.574 81.5657C295.889 82.1863 296.102 82.9667 296.213 83.9069C296.379 85.3105 296.264 86.4384 295.867 87.2908C295.483 88.1283 294.781 88.6073 293.761 88.7277C293.139 88.8012 292.588 88.685 292.109 88.3791C291.63 88.0732 291.239 87.6025 290.935 86.967C290.644 86.3167 290.443 85.5281 290.334 84.6013C290.168 83.1977 290.271 82.0845 290.644 81.2618C291.015 80.4258 291.704 79.9484 292.711 79.8295ZM292.858 81.0808C292.355 81.1403 292.016 81.4489 291.84 82.0067C291.677 82.5629 291.659 83.3707 291.784 84.43C291.91 85.5026 292.118 86.297 292.408 86.8133C292.708 87.3148 293.111 87.5358 293.614 87.4764C294.13 87.4154 294.483 87.1052 294.672 86.5459C294.861 85.9865 294.891 85.1639 294.763 84.0781C294.638 83.0188 294.418 82.2392 294.104 81.7393C293.79 81.2393 293.375 81.0199 292.858 81.0808ZM302.392 86.9028L302.571 86.8817C302.796 86.8551 302.937 86.7444 302.995 86.5496C303.064 86.3401 303.067 85.9639 303.002 85.421L301.883 75.9468C301.818 75.3907 301.728 75.0254 301.613 74.851C301.512 74.675 301.348 74.6003 301.123 74.6269L300.945 74.648L300.874 74.0521L303.323 73.2997L303.819 73.2411L304.465 78.7031C304.717 78.1094 305.122 77.6185 305.68 77.2303C306.25 76.8274 306.899 76.5829 307.628 76.4969C308.634 76.378 309.441 76.5579 310.048 77.0367C310.655 77.5155 311.039 78.3831 311.201 79.6394L311.762 84.3864C311.826 84.9293 311.909 85.2954 312.012 85.4846C312.127 85.659 312.303 85.7322 312.541 85.704L312.7 85.6853L312.771 86.2811L311.996 86.3726L309.772 86.6354L308.997 86.7268L308.927 86.131L309.105 86.1099C309.33 86.0833 309.472 85.9726 309.529 85.7779C309.599 85.5683 309.601 85.1921 309.537 84.6492L308.986 79.9816C308.887 79.1474 308.652 78.524 308.281 78.1113C307.922 77.6838 307.425 77.5076 306.789 77.5827C306.074 77.6671 305.52 77.9809 305.128 78.524C304.736 79.0671 304.585 79.7227 304.676 80.4907L305.227 85.1582C305.291 85.7011 305.375 86.0672 305.477 86.2564C305.592 86.4308 305.762 86.5048 305.987 86.4782L306.166 86.4571L306.236 87.0529L302.462 87.4986L302.392 86.9028ZM317.008 86.1029C316.373 86.1779 315.788 86.1194 315.255 85.9272C314.736 85.7335 314.304 85.4354 313.962 85.0328C313.63 84.6155 313.432 84.1287 313.366 83.5726C313.277 82.8178 313.399 82.1993 313.731 81.717C314.062 81.2214 314.48 80.8431 314.987 80.5819C315.504 80.3059 316.182 80.0178 317.019 79.7175C317.613 79.5131 318.075 79.3377 318.407 79.1911C318.737 79.0312 319.003 78.8387 319.205 78.6135C319.418 78.3735 319.505 78.088 319.466 77.757L319.431 77.459C319.362 76.8764 319.172 76.4625 318.861 76.2173C318.549 75.9588 318.088 75.8655 317.479 75.9375C316.963 75.9985 316.546 76.2222 316.229 76.6087C315.911 76.982 315.779 77.4003 315.834 77.8638C315.888 78.3272 315.807 78.7194 315.59 79.0405C315.371 79.3482 315.057 79.5264 314.646 79.5749C314.289 79.6171 313.957 79.5355 313.651 79.33C313.344 79.1244 313.169 78.8363 313.126 78.4656C313.063 77.9359 313.208 77.4556 313.559 77.0247C313.923 76.579 314.423 76.2111 315.06 75.921C315.697 75.631 316.387 75.4422 317.128 75.3546C318.505 75.1919 319.583 75.3332 320.36 75.7784C321.136 76.2104 321.595 76.9081 321.735 77.8716L322.303 82.6782C322.372 83.2608 322.448 83.6814 322.533 83.94C322.617 84.1985 322.771 84.3145 322.997 84.2879C323.314 84.2504 323.562 83.899 323.738 83.2337L324.337 83.3643C324.191 84.0529 323.956 84.564 323.632 84.8976C323.321 85.2163 322.927 85.4038 322.45 85.4601C321.801 85.5367 321.282 85.4034 320.893 85.06C320.515 84.7019 320.257 84.1081 320.118 83.2786C319.915 84.0545 319.554 84.6946 319.036 85.1988C318.532 85.7014 317.856 86.0028 317.008 86.1029ZM315.588 83.29C315.651 83.8196 315.875 84.2429 316.262 84.5597C316.66 84.8618 317.144 84.9792 317.713 84.9119C318.521 84.8165 319.11 84.4046 319.481 83.6761C319.849 82.9344 319.975 82.067 319.858 81.0739L319.612 78.9884C319.46 79.1809 319.26 79.3656 319.012 79.5425C318.763 79.7062 318.437 79.8991 318.034 80.1213C317.479 80.4285 317.022 80.7106 316.663 80.9679C316.318 81.2235 316.034 81.5457 315.811 81.9345C315.6 82.3085 315.526 82.7603 315.588 83.29ZM325.137 84.8206L325.066 84.2247L325.245 84.2036C325.47 84.177 325.612 84.0663 325.669 83.8716C325.738 83.662 325.741 83.2858 325.677 82.7429L324.558 73.2687C324.492 72.7126 324.402 72.3473 324.287 72.1729C324.186 71.9969 324.023 71.9222 323.798 71.9488L323.619 71.9699L323.549 71.374L325.997 70.6216L326.494 70.563L327.901 82.4802C327.965 83.023 328.049 83.3891 328.152 83.5783C328.266 83.7528 328.443 83.8259 328.681 83.7978L328.84 83.779L328.911 84.3749L328.136 84.4663L325.911 84.7291L325.137 84.8206ZM333.282 84.1808C332.646 84.2559 332.062 84.1973 331.529 84.0052C331.009 83.8115 330.578 83.5133 330.235 83.1108C329.904 82.6934 329.705 82.2067 329.64 81.6505C329.551 80.8958 329.672 80.2772 330.005 79.7949C330.335 79.2994 330.754 78.921 331.26 78.6598C331.778 78.3838 332.456 78.0957 333.293 77.7954C333.886 77.5911 334.349 77.4156 334.681 77.269C335.011 77.1092 335.277 76.9167 335.478 76.6914C335.692 76.4514 335.779 76.1659 335.74 75.8349L335.705 75.537C335.636 74.9543 335.446 74.5404 335.135 74.2952C334.823 74.0367 334.362 73.9435 333.753 74.0154C333.236 74.0764 332.82 74.3001 332.503 74.6866C332.184 75.0599 332.052 75.4782 332.107 75.9417C332.162 76.4051 332.081 76.7974 331.864 77.1184C331.645 77.4262 331.33 77.6043 330.92 77.6528C330.562 77.695 330.23 77.6134 329.924 77.4079C329.618 77.2024 329.443 76.9143 329.399 76.5435C329.337 76.0138 329.481 75.5336 329.833 75.1026C330.197 74.6569 330.697 74.289 331.334 73.999C331.971 73.7089 332.66 73.5201 333.402 73.4325C334.779 73.2699 335.856 73.4112 336.634 73.8563C337.41 74.2883 337.868 74.986 338.009 75.9495L338.577 80.7561C338.645 81.3387 338.722 81.7593 338.806 82.0179C338.89 82.2765 339.045 82.3925 339.27 82.3659C339.588 82.3283 339.835 81.9769 340.012 81.3116L340.611 81.4422C340.464 82.1309 340.229 82.642 339.906 82.9755C339.595 83.2942 339.201 83.4817 338.724 83.538C338.075 83.6147 337.556 83.4813 337.166 83.138C336.788 82.7798 336.53 82.186 336.392 81.3565C336.188 82.1324 335.827 82.7725 335.31 83.2767C334.805 83.7793 334.129 84.0807 333.282 84.1808ZM331.862 81.3679C331.925 81.8976 332.149 82.3208 332.536 82.6377C332.934 82.9397 333.418 83.0571 333.987 82.9899C334.795 82.8945 335.384 82.4825 335.754 81.7541C336.123 81.0123 336.249 80.1449 336.132 79.1518L335.885 77.0663C335.733 77.2588 335.534 77.4435 335.286 77.6204C335.037 77.7841 334.711 77.9771 334.307 78.1992C333.753 78.5064 333.296 78.7886 332.937 79.0458C332.591 79.3014 332.307 79.6237 332.085 80.0125C331.874 80.3864 331.799 80.8383 331.862 81.3679ZM341.41 82.8985L341.34 82.3026L341.519 82.2815C341.744 82.2549 341.885 82.1443 341.943 81.9495C342.012 81.7399 342.015 81.3637 341.95 80.8208L340.831 71.3467C340.766 70.7905 340.676 70.4253 340.561 70.2508C340.46 70.0748 340.296 70.0001 340.071 70.0267L339.893 70.0478L339.822 69.452L342.271 68.6996L342.767 68.6409L344.175 80.5581C344.239 81.101 344.323 81.467 344.425 81.6563C344.54 81.8307 344.717 81.9038 344.955 81.8757L345.114 81.8569L345.184 82.4528L344.41 82.5443L342.185 82.807L341.41 82.8985Z" fill="black"/>
</svg>
