<svg width="19" height="18" viewBox="0 0 19 18" fill="none" xmlns="http://www.w3.org/2000/svg">
<path d="M8.64319 1.42372C9.03185 0.777902 9.96815 0.777901 10.3568 1.42372L12.5731 5.10651C12.7128 5.33853 12.9405 5.504 13.2043 5.56509L17.3918 6.53491C18.1261 6.70498 18.4154 7.59545 17.9213 8.16466L15.1036 11.4106C14.9261 11.6151 14.8391 11.8828 14.8625 12.1526L15.2342 16.4347C15.2994 17.1857 14.5419 17.736 13.8478 17.442L9.89009 15.7653C9.64076 15.6596 9.35924 15.6596 9.10991 15.7653L5.15216 17.442C4.45813 17.736 3.70065 17.1857 3.76582 16.4347L4.13745 12.1526C4.16087 11.8828 4.07387 11.6151 3.89637 11.4106L1.07871 8.16466C0.584598 7.59545 0.873929 6.70498 1.60824 6.53491L5.79567 5.56509C6.05948 5.504 6.28723 5.33853 6.42685 5.10652L8.64319 1.42372Z" fill="#FFAA00"/>
</svg>
